<svg width="31" height="31" viewBox="0 0 31 31" fill="none" xmlns="http://www.w3.org/2000/svg">
<circle cx="15.8337" cy="15.3334" r="15.1667" fill="#383838"/>
<path fill-rule="evenodd" clip-rule="evenodd" d="M15.8333 28.1667C22.921 28.1667 28.6667 22.421 28.6667 15.3333C28.6667 8.24568 22.921 2.5 15.8333 2.5C8.74568 2.5 3 8.24568 3 15.3333C3 22.421 8.74568 28.1667 15.8333 28.1667ZM17 8.33333C17 7.689 16.4777 7.16667 15.8333 7.16667C15.189 7.16667 14.6667 7.689 14.6667 8.33333V14.1667H8.8335C8.18917 14.1667 7.66684 14.689 7.66684 15.3333C7.66684 15.9777 8.18917 16.5 8.8335 16.5H14.6667V22.3333C14.6667 22.9777 15.189 23.5 15.8333 23.5C16.4777 23.5 17 22.9777 17 22.3333V16.5H22.8335C23.4778 16.5 24.0002 15.9777 24.0002 15.3333C24.0002 14.689 23.4778 14.1667 22.8335 14.1667H17V8.33333Z" fill="white"/>
</svg>