<svg width="31" height="31" viewBox="0 0 31 31" fill="none" xmlns="http://www.w3.org/2000/svg">
<circle cx="15.8337" cy="15.3334" r="15.1667" fill="#383838"/>
<path fill-rule="evenodd" clip-rule="evenodd" d="M15.3333 28.1667C22.421 28.1667 28.1667 22.421 28.1667 15.3333C28.1667 8.24568 22.421 2.5 15.3333 2.5C8.24568 2.5 2.5 8.24568 2.5 15.3333C2.5 22.421 8.24568 28.1667 15.3333 28.1667ZM21.9916 12.6583C22.4472 12.2027 22.4472 11.464 21.9916 11.0084C21.536 10.5528 20.7973 10.5528 20.3417 11.0084L13 18.3501L9.15829 14.5084C8.70268 14.0528 7.96399 14.0528 7.50837 14.5084C7.05276 14.964 7.05276 15.7027 7.50837 16.1583L12.175 20.825C12.3938 21.0438 12.6906 21.1667 13 21.1667C13.3094 21.1667 13.6062 21.0438 13.825 20.825L21.9916 12.6583Z" fill="white"/>
</svg>