<svg width="31" height="31" viewBox="0 0 31 31" fill="none" xmlns="http://www.w3.org/2000/svg">
<circle cx="15.8333" cy="15.8333" r="15.1667" fill="#383838"/>
<path fill-rule="evenodd" clip-rule="evenodd" d="M15.8333 28.6667C22.921 28.6667 28.6667 22.921 28.6667 15.8333C28.6667 8.74568 22.921 3 15.8333 3C8.74568 3 3 8.74568 3 15.8333C3 22.921 8.74568 28.6667 15.8333 28.6667ZM17 8.83333C17 8.189 16.4777 7.66667 15.8333 7.66667C15.189 7.66667 14.6667 8.189 14.6667 8.83333V14.6667H8.8335C8.18917 14.6667 7.66684 15.189 7.66684 15.8333C7.66684 16.4777 8.18917 17 8.8335 17H14.6667V22.8333C14.6667 23.4777 15.189 24 15.8333 24C16.4777 24 17 23.4777 17 22.8333V17H22.8335C23.4778 17 24.0002 16.4777 24.0002 15.8333C24.0002 15.189 23.4778 14.6667 22.8335 14.6667H17V8.83333Z" fill="white"/>
</svg>