<svg width="31" height="31" viewBox="0 0 31 31" fill="none" xmlns="http://www.w3.org/2000/svg">
<circle cx="15.8333" cy="15.8333" r="15.1667" fill="#383838"/>
<path fill-rule="evenodd" clip-rule="evenodd" d="M28.6667 15.8333C28.6667 22.921 22.921 28.6667 15.8333 28.6667C8.74568 28.6667 3 22.921 3 15.8333C3 8.74568 8.74568 3 15.8333 3C22.921 3 28.6667 8.74568 28.6667 15.8333ZM20.5002 9.99982C21.1445 9.99982 21.6668 10.5222 21.6668 11.1665V17.7662C21.6668 18.4105 21.1445 18.9328 20.5002 18.9328C19.8558 18.9328 19.3335 18.4105 19.3335 17.7662V13.9831L11.9914 21.3251C11.5358 21.7807 10.7971 21.7807 10.3415 21.3251C9.88592 20.8695 9.88592 20.1308 10.3415 19.6752L17.6836 12.3332H13.9005C13.2562 12.3332 12.7338 11.8108 12.7338 11.1665C12.7338 10.5222 13.2562 9.99982 13.9005 9.99982H20.5002Z" fill="white"/>
</svg>
