<svg width="144" height="144" viewBox="0 0 144 144" fill="none" xmlns="http://www.w3.org/2000/svg">

<defs>
<linearGradient id="paint0_linear_88_12419" x1="144" y1="72" x2="-6.70552e-07" y2="72" gradientUnits="userSpaceOnUse">
<stop stop-opacity="0"/>
<stop offset="1"/>
</linearGradient>
</defs>
<g>
<path d="M0 16C0 7.16344 7.16344 0 16 0H128C136.837 0 144 7.16344 144 16V128C144 136.837 136.837 144 128 144H16C7.16344 144 0 136.837 0 128V16Z" fill="#383838"/>
<path d="M0 16C0 7.16344 7.16344 0 16 0H128C136.837 0 144 7.16344 144 16V128C144 136.837 136.837 144 128 144H16C7.16344 144 0 136.837 0 128V16Z" fill="url(#paint0_linear_88_12419)" fill-opacity="0.2"/>
<g id="icon">
<path fill-rule="evenodd" clip-rule="evenodd" d="M72 29.6001C67.3608 29.6001 63.6 33.3609 63.6 38.0001V52.0001C63.6 56.6393 67.3608 60.4001 72 60.4001C76.6392 60.4001 80.4 56.6393 80.4 52.0001V38.0001C80.4 33.3609 76.6392 29.6001 72 29.6001ZM77.6 52.0001V38.0001C77.6 34.9073 75.0928 32.4001 72 32.4001C68.9072 32.4001 66.4 34.9073 66.4 38.0001V52.0001C66.4 55.0929 68.9072 57.6001 72 57.6001C75.0928 57.6001 77.6 55.0929 77.6 52.0001Z" fill="white"/>
<path d="M59.4 50.6001C60.1732 50.6001 60.8 51.2269 60.8 52.0001C60.8 53.4709 61.0897 54.9273 61.6525 56.2861C62.2154 57.645 63.0404 58.8797 64.0804 59.9197C65.1204 60.9597 66.3551 61.7847 67.7139 62.3475C69.0728 62.9104 70.5292 63.2001 72 63.2001C73.4708 63.2001 74.9272 62.9104 76.2861 62.3475C77.6449 61.7847 78.8796 60.9597 79.9196 59.9197C80.9596 58.8797 81.7846 57.645 82.3474 56.2861C82.9103 54.9273 83.2 53.4709 83.2 52.0001C83.2 51.2269 83.8268 50.6001 84.6 50.6001C85.3732 50.6001 86 51.2269 86 52.0001C86 53.8386 85.6379 55.6591 84.9343 57.3577C84.2307 59.0562 83.1995 60.5996 81.8995 61.8996C80.5995 63.1996 79.0561 64.2308 77.3576 64.9344C76.0918 65.4587 74.7582 65.7934 73.4 65.9299V71.6001H79C79.7732 71.6001 80.4 72.2269 80.4 73.0001C80.4 73.7733 79.7732 74.4001 79 74.4001H65C64.2268 74.4001 63.6 73.7733 63.6 73.0001C63.6 72.2269 64.2268 71.6001 65 71.6001H70.6V65.9299C69.2418 65.7934 67.9082 65.4587 66.6424 64.9344C64.9439 64.2308 63.4005 63.1996 62.1005 61.8996C60.8005 60.5996 59.7693 59.0562 59.0657 57.3577C58.3621 55.6591 58 53.8386 58 52.0001C58 51.2269 58.6268 50.6001 59.4 50.6001Z" fill="white"/>
<circle cx="84.8333" cy="64.8332" r="15.1667" fill="#383838"/>
<path fill-rule="evenodd" clip-rule="evenodd" d="M84.8333 77.6667C91.921 77.6667 97.6667 71.921 97.6667 64.8333C97.6667 57.7457 91.921 52 84.8333 52C77.7457 52 72 57.7457 72 64.8333C72 71.921 77.7457 77.6667 84.8333 77.6667ZM86 57.8333C86 57.189 85.4777 56.6667 84.8333 56.6667C84.189 56.6667 83.6667 57.189 83.6667 57.8333V63.6667H77.8335C77.1892 63.6667 76.6668 64.189 76.6668 64.8333C76.6668 65.4777 77.1892 66 77.8335 66H83.6667V71.8333C83.6667 72.4777 84.189 73 84.8333 73C85.4777 73 86 72.4777 86 71.8333V66H91.8335C92.4778 66 93.0002 65.4777 93.0002 64.8333C93.0002 64.189 92.4778 63.6667 91.8335 63.6667H86V57.8333Z" fill="white"/>
</g>
<g id="symbol">
<path fill-rule="evenodd" clip-rule="evenodd" d="M35.6666 93.3332C35.6666 91.8604 36.8605 90.6665 38.3333 90.6665H43.6666C45.1394 90.6665 46.3333 91.8604 46.3333 93.3332V109.333C46.3333 110.806 45.1394 112 43.6666 112H42V115.333H46.6666C47.2189 115.333 47.6666 115.781 47.6666 116.333C47.6666 116.885 47.2189 117.333 46.6666 117.333L35.3333 117.333C34.781 117.333 34.3333 116.885 34.3333 116.333C34.3333 115.781 34.781 115.333 35.3333 115.333H40V112H38.3333C36.8605 112 35.6666 110.806 35.6666 109.333V93.3332ZM38.3333 92.6665H43.6666C44.0348 92.6665 44.3333 92.965 44.3333 93.3332V102.667L37.6666 102.667V93.3332C37.6666 92.965 37.9651 92.6665 38.3333 92.6665ZM37.6666 104.667V109.333C37.6666 109.701 37.9651 110 38.3333 110H43.6666C44.0348 110 44.3333 109.701 44.3333 109.333V104.667L37.6666 104.667Z" fill="white"/>
<path d="M32.6666 101.333C33.2189 101.333 33.6666 101.781 33.6666 102.333L33.6666 105.667C33.6666 106.219 33.2189 106.667 32.6666 106.667C32.1143 106.667 31.6666 106.219 31.6666 105.667V102.333C31.6666 101.781 32.1143 101.333 32.6666 101.333Z" fill="white"/>
<path d="M50.3333 102.333C50.3333 101.781 49.8856 101.333 49.3333 101.333C48.781 101.333 48.3333 101.781 48.3333 102.333V105.667C48.3333 106.219 48.781 106.667 49.3333 106.667C49.8856 106.667 50.3333 106.219 50.3333 105.667V102.333Z" fill="white"/>
</g>
<text/>
</g>
</svg>