<svg width="56" height="56" viewBox="0 0 56 56" fill="none" xmlns="http://www.w3.org/2000/svg">
<path fill-rule="evenodd" clip-rule="evenodd" d="M28 5.6001C23.3608 5.6001 19.6 9.36091 19.6 14.0001V28.0001C19.6 32.6393 23.3608 36.4001 28 36.4001C32.6392 36.4001 36.4 32.6393 36.4 28.0001V14.0001C36.4 9.36091 32.6392 5.6001 28 5.6001ZM33.6 28.0001V14.0001C33.6 10.9073 31.0928 8.4001 28 8.4001C24.9072 8.4001 22.4 10.9073 22.4 14.0001V28.0001C22.4 31.0929 24.9072 33.6001 28 33.6001C31.0928 33.6001 33.6 31.0929 33.6 28.0001Z" fill="white"/>
<path d="M15.4 26.6001C16.1732 26.6001 16.8 27.2269 16.8 28.0001C16.8 29.4709 17.0897 30.9273 17.6525 32.2861C18.2154 33.645 19.0404 34.8797 20.0804 35.9197C21.1204 36.9597 22.3551 37.7847 23.7139 38.3475C25.0728 38.9104 26.5292 39.2001 28 39.2001C29.4708 39.2001 30.9272 38.9104 32.2861 38.3475C33.6449 37.7847 34.8796 36.9597 35.9196 35.9197C36.9596 34.8797 37.7846 33.645 38.3474 32.2861C38.9103 30.9273 39.2 29.4709 39.2 28.0001C39.2 27.2269 39.8268 26.6001 40.6 26.6001C41.3732 26.6001 42 27.2269 42 28.0001C42 29.8386 41.6379 31.6591 40.9343 33.3577C40.2307 35.0562 39.1995 36.5996 37.8995 37.8996C36.5995 39.1996 35.0561 40.2308 33.3576 40.9344C32.0918 41.4587 30.7582 41.7934 29.4 41.9299V47.6001H35C35.7732 47.6001 36.4 48.2269 36.4 49.0001C36.4 49.7733 35.7732 50.4001 35 50.4001H21C20.2268 50.4001 19.6 49.7733 19.6 49.0001C19.6 48.2269 20.2268 47.6001 21 47.6001H26.6V41.9299C25.2418 41.7934 23.9082 41.4587 22.6424 40.9344C20.9439 40.2308 19.4005 39.1996 18.1005 37.8996C16.8005 36.5996 15.7693 35.0562 15.0657 33.3577C14.3621 31.6591 14 29.8386 14 28.0001C14 27.2269 14.6268 26.6001 15.4 26.6001Z" fill="white"/>
</svg>
