<svg width="56" height="56" viewBox="0 0 56 56" fill="none" xmlns="http://www.w3.org/2000/svg">
<path fill-rule="evenodd" clip-rule="evenodd" d="M49.99 7.99005C50.5368 7.44331 50.5368 6.55688 49.99 6.01015C49.4433 5.46341 48.5569 5.46341 48.0101 6.01015L6.01015 48.0101C5.46341 48.5569 5.46341 49.4433 6.01015 49.99C6.55688 50.5368 7.44331 50.5368 7.99005 49.99L19.1402 38.8399C20.1971 39.7038 21.3767 40.4101 22.6425 40.9344C23.9083 41.4587 25.2419 41.7934 26.6001 41.9299V47.6001H21.0001C20.2269 47.6001 19.6001 48.2269 19.6001 49.0001C19.6001 49.7733 20.2269 50.4001 21.0001 50.4001H35.0001C35.7733 50.4001 36.4001 49.7733 36.4001 49.0001C36.4001 48.2269 35.7733 47.6001 35.0001 47.6001H29.4001V41.9299C30.7583 41.7934 32.0919 41.4587 33.3577 40.9344C35.0562 40.2308 36.5996 39.1996 37.8996 37.8996C39.1996 36.5996 40.2308 35.0562 40.9344 33.3577C41.638 31.6591 42.0001 29.8386 42.0001 28.0001C42.0001 27.2269 41.3733 26.6001 40.6001 26.6001C39.8269 26.6001 39.2001 27.2269 39.2001 28.0001C39.2001 29.4709 38.9104 30.9273 38.3475 32.2861C37.7847 33.645 36.9597 34.8797 35.9197 35.9197C34.8797 36.9597 33.645 37.7847 32.2861 38.3475C30.9273 38.9104 29.4709 39.2001 28.0001 39.2001C26.5293 39.2001 25.0729 38.9104 23.714 38.3475C22.7885 37.9642 21.9206 37.4592 21.1326 36.8475L23.1329 34.8471C24.5061 35.825 26.1859 36.4001 28.0001 36.4001C32.6393 36.4001 36.4001 32.6393 36.4001 28.0001V21.58L49.99 7.99005ZM33.6001 24.38L25.1553 32.8247C25.9891 33.3174 26.9616 33.6001 28.0001 33.6001C31.0929 33.6001 33.6001 31.0929 33.6001 28.0001V24.38Z" fill="#FF3C4E"/>
<path d="M28.0001 5.6001C32.5277 5.6001 36.2187 9.18216 36.3936 13.6669L33.6001 16.4604V14.0001C33.6001 10.9073 31.0929 8.4001 28.0001 8.4001C24.9073 8.4001 22.4001 10.9073 22.4001 14.0001V27.6604L19.8846 30.1759C19.699 29.4819 19.6001 28.7526 19.6001 28.0001V14.0001C19.6001 9.36091 23.3609 5.6001 28.0001 5.6001Z" fill="#FF3C4E"/>
<path d="M17.6526 32.2861L17.6886 32.3719L15.5867 34.4738C15.3971 34.1102 15.2232 33.7378 15.0658 33.3577C14.3622 31.6591 14.0001 29.8386 14.0001 28.0001C14.0001 27.2269 14.6269 26.6001 15.4001 26.6001C16.1733 26.6001 16.8001 27.2269 16.8001 28.0001C16.8001 29.4709 17.0898 30.9273 17.6526 32.2861Z" fill="#FF3C4E"/>
</svg>