<svg width="56" height="56" viewBox="0 0 56 56" fill="none" xmlns="http://www.w3.org/2000/svg">
<path d="M49.0001 11.2002C39.9251 11.2002 31.6876 16.5044 27.9323 24.766L25.5188 30.0757C22.2179 37.3377 14.9771 42.0002 7.0001 42.0002C6.2269 42.0002 5.6001 42.627 5.6001 43.4002C5.6001 44.1734 6.2269 44.8002 7.0001 44.8002C16.0751 44.8002 24.3126 39.496 28.0679 31.2344L30.4814 25.9246C33.7823 18.6626 41.0231 14.0002 49.0001 14.0002C49.7733 14.0002 50.4001 13.3734 50.4001 12.6002C50.4001 11.827 49.7733 11.2002 49.0001 11.2002Z" fill="white"/>
<path d="M7.0001 11.2002C6.2269 11.2002 5.6001 11.827 5.6001 12.6002C5.6001 13.3734 6.2269 14.0002 7.0001 14.0002C13.6659 14.0002 19.8182 17.256 23.5865 22.5642C24.0341 23.1947 24.9081 23.343 25.5385 22.8954C26.169 22.4478 26.3173 21.5739 25.8697 20.9434C21.5828 14.9046 14.5842 11.2002 7.0001 11.2002Z" fill="white"/>
<path d="M32.4137 33.4362C31.9661 32.8057 31.0921 32.6574 30.4617 33.105C29.8312 33.5526 29.6829 34.4265 30.1305 35.057C34.4174 41.0958 41.416 44.8002 49.0001 44.8002C49.7733 44.8002 50.4001 44.1734 50.4001 43.4002C50.4001 42.627 49.7733 42.0002 49.0001 42.0002C42.3343 42.0002 36.182 38.7444 32.4137 33.4362Z" fill="white"/>
</svg>
