<svg width="56" height="56" viewBox="0 0 56 56" fill="none" xmlns="http://www.w3.org/2000/svg">
<path d="M28 8.4001C17.1752 8.4001 8.39998 17.1753 8.39998 28.0001V40.6001C8.39998 41.3733 7.77317 42.0001 6.99998 42.0001C6.22678 42.0001 5.59998 41.3733 5.59998 40.6001V28.0001C5.59998 15.6289 15.6288 5.6001 28 5.6001C40.3712 5.6001 50.4 15.6289 50.4 28.0001V40.6001C50.4 41.3733 49.7732 42.0001 49 42.0001C48.2268 42.0001 47.6 41.3733 47.6 40.6001V28.0001C47.6 17.1753 38.8248 8.4001 28 8.4001Z" fill="white"/>
<path fill-rule="evenodd" clip-rule="evenodd" d="M15.4 30.8001C13.0804 30.8001 11.2 32.6805 11.2 35.0001V46.2001C11.2 48.5197 13.0804 50.4001 15.4 50.4001H18.2C20.5196 50.4001 22.4 48.5197 22.4 46.2001V35.0001C22.4 32.6805 20.5196 30.8001 18.2 30.8001H15.4ZM18.2 33.6001H15.4C14.6268 33.6001 14 34.2269 14 35.0001V46.2001C14 46.9733 14.6268 47.6001 15.4 47.6001H18.2C18.9732 47.6001 19.6 46.9733 19.6 46.2001V35.0001C19.6 34.2269 18.9732 33.6001 18.2 33.6001Z" fill="white"/>
<path fill-rule="evenodd" clip-rule="evenodd" d="M33.6 35.0001C33.6 32.6805 35.4804 30.8001 37.8 30.8001H40.6C42.9196 30.8001 44.8 32.6805 44.8 35.0001V46.2001C44.8 48.5197 42.9196 50.4001 40.6 50.4001H37.8C35.4804 50.4001 33.6 48.5197 33.6 46.2001V35.0001ZM37.8 33.6001H40.6C41.3732 33.6001 42 34.2269 42 35.0001V46.2001C42 46.9733 41.3732 47.6001 40.6 47.6001H37.8C37.0268 47.6001 36.4 46.9733 36.4 46.2001V35.0001C36.4 34.2269 37.0268 33.6001 37.8 33.6001Z" fill="white"/>
</svg>
