<svg width="32" height="32" viewBox="0 0 32 32" fill="none" xmlns="http://www.w3.org/2000/svg">
<path fill-rule="evenodd" clip-rule="evenodd" d="M16.8223 4.4308C16.6356 4.161 16.3283 4 16.0001 4C15.672 4 15.3647 4.16098 15.1779 4.43078L9.68196 12.3692L4.1324 9.44841C3.79738 9.27209 3.39151 9.30007 3.08386 9.52071C2.77622 9.74134 2.61954 10.1168 2.67911 10.4907L4.87741 24.2887C5.10943 25.745 6.36541 26.8167 7.84005 26.8167H24.1602C25.6349 26.8167 26.8908 25.7449 27.1228 24.2887L29.321 10.4907C29.3806 10.1168 29.2239 9.74134 28.9163 9.52071C28.6086 9.30008 28.2027 9.27209 27.8677 9.44841L22.318 12.3692L16.8223 4.4308ZM10.8222 14.2359L16.0001 6.75682L21.1778 14.2359C21.4656 14.6516 22.0183 14.7871 22.4657 14.5516L27.0317 12.1485L25.7808 20H6.21936L4.96847 12.1485L9.53424 14.5516C9.98163 14.7871 10.5344 14.6516 10.8222 14.2359ZM6.538 22L6.8525 23.974C6.92984 24.4594 7.3485 24.8167 7.84005 24.8167H24.1602C24.6517 24.8167 25.0704 24.4594 25.1477 23.974L25.4622 22H6.538Z" fill="white"/>
</svg>
