<svg width="32" height="32" viewBox="0 0 32 32" fill="none" xmlns="http://www.w3.org/2000/svg">
<path d="M21.0826 20.3142C21.44 19.8931 21.3884 19.262 20.9673 18.9047C20.5463 18.5473 19.9152 18.5989 19.5578 19.0199C19.12 19.5357 18.5754 19.9501 17.9615 20.2344C17.3477 20.5188 16.6794 20.6662 16.0029 20.6667C15.3264 20.6671 14.6579 20.5204 14.0437 20.2368C13.4295 19.9532 12.8843 19.5395 12.4459 19.0243C12.088 18.6036 11.4569 18.5528 11.0363 18.9107C10.6157 19.2686 10.5648 19.8997 10.9227 20.3204C11.549 21.0564 12.3279 21.6474 13.2053 22.0526C14.0827 22.4577 15.0377 22.6672 16.0041 22.6667C16.9705 22.6661 17.9253 22.4554 18.8022 22.0492C19.6791 21.643 20.4572 21.0509 21.0826 20.3142Z" fill="white"/>
<path d="M13.3334 13.6667C13.3334 14.5871 12.5872 15.3333 11.6667 15.3333C10.7462 15.3333 10 14.5871 10 13.6667C10 12.7462 10.7462 12 11.6667 12C12.5872 12 13.3334 12.7462 13.3334 13.6667Z" fill="white"/>
<path d="M20.3334 15.3333C21.2538 15.3333 22 14.5871 22 13.6667C22 12.7462 21.2538 12 20.3334 12C19.4129 12 18.6667 12.7462 18.6667 13.6667C18.6667 14.5871 19.4129 15.3333 20.3334 15.3333Z" fill="white"/>
<path fill-rule="evenodd" clip-rule="evenodd" d="M29.3334 16C29.3334 23.3638 23.3638 29.3333 16 29.3333C8.63622 29.3333 2.66669 23.3638 2.66669 16C2.66669 8.63619 8.63622 2.66666 16 2.66666C23.3638 2.66666 29.3334 8.63619 29.3334 16ZM16 27.3333C22.2592 27.3333 27.3334 22.2592 27.3334 16C27.3334 9.74076 22.2592 4.66666 16 4.66666C9.74079 4.66666 4.66669 9.74076 4.66669 16C4.66669 22.2592 9.74079 27.3333 16 27.3333Z" fill="white"/>
</svg>
