<svg width="32" height="32" viewBox="0 0 32 32" fill="none" xmlns="http://www.w3.org/2000/svg">
<path fill-rule="evenodd" clip-rule="evenodd" d="M14.4 12.8C14.4 14.5673 12.9673 16 11.2 16C9.43271 16 8.00002 14.5673 8.00002 12.8C8.00002 11.0327 9.43271 9.59999 11.2 9.59999C12.9673 9.59999 14.4 11.0327 14.4 12.8ZM12.8 12.8C12.8 13.6836 12.0837 14.4 11.2 14.4C10.3164 14.4 9.60002 13.6836 9.60002 12.8C9.60002 11.9163 10.3164 11.2 11.2 11.2C12.0837 11.2 12.8 11.9163 12.8 12.8Z" fill="white"/>
<path d="M19.2 12.8C20.0837 12.8 20.8 12.0836 20.8 11.2C20.8 10.3163 20.0837 9.59999 19.2 9.59999C18.3164 9.59999 17.6 10.3163 17.6 11.2C17.6 12.0836 18.3164 12.8 19.2 12.8Z" fill="white"/>
<path d="M24 14.4C24 15.2836 23.2837 16 22.4 16C21.5164 16 20.8 15.2836 20.8 14.4C20.8 13.5163 21.5164 12.8 22.4 12.8C23.2837 12.8 24 13.5163 24 14.4Z" fill="white"/>
<path fill-rule="evenodd" clip-rule="evenodd" d="M20.47 21.552L22.8454 25.3526C23.5637 26.5018 24.8233 27.2 26.1786 27.2C28.4597 27.2 30.2664 25.2565 30.0748 22.9834C28.5418 4.79999 26.4479 4.79999 16 4.79999C5.55216 4.79999 3.45821 4.79999 1.92527 22.9834C1.73364 25.2565 3.54033 27.2 5.82146 27.2C7.17671 27.2 8.43637 26.5018 9.15465 25.3526L11.53 21.552C11.8224 21.0842 12.3352 20.8 12.8868 20.8H19.1132C19.6649 20.8 20.1776 21.0842 20.47 21.552ZM24.2022 24.5046L21.8268 20.704C21.2421 19.7684 20.2166 19.2 19.1132 19.2H12.8868C11.7835 19.2 10.758 19.7684 10.1732 20.704L7.79786 24.5046C7.37196 25.186 6.62505 25.6 5.82146 25.6C4.46584 25.6 3.40761 24.4465 3.51962 23.1179C3.90188 18.5835 4.31329 15.266 4.86293 12.8222C5.41604 10.3631 6.07172 8.97226 6.81522 8.13611C7.50827 7.3567 8.41423 6.90744 9.87406 6.66195C11.4021 6.40498 13.3386 6.39999 16 6.39999C18.6615 6.39999 20.5979 6.40498 22.126 6.66195C23.5858 6.90744 24.4918 7.3567 25.1848 8.13611C25.9283 8.97226 26.584 10.3631 27.1371 12.8222C27.6867 15.266 28.0982 18.5835 28.4804 23.1179C28.5924 24.4465 27.5342 25.6 26.1786 25.6C25.375 25.6 24.6281 25.186 24.2022 24.5046Z" fill="white"/>
</svg>