<svg width="32" height="32" viewBox="0 0 32 32" fill="none" xmlns="http://www.w3.org/2000/svg">
<path fill-rule="evenodd" clip-rule="evenodd" d="M14.6667 10C14.6667 12.5773 12.5773 14.6667 10 14.6667C7.42269 14.6667 5.33335 12.5773 5.33335 10C5.33335 7.42268 7.42269 5.33334 10 5.33334C12.5773 5.33334 14.6667 7.42268 14.6667 10ZM12.6667 10C12.6667 11.4728 11.4728 12.6667 10 12.6667C8.52726 12.6667 7.33335 11.4728 7.33335 10C7.33335 8.52725 8.52726 7.33334 10 7.33334C11.4728 7.33334 12.6667 8.52725 12.6667 10Z" fill="white"/>
<path fill-rule="evenodd" clip-rule="evenodd" d="M26.6667 10C26.6667 12.5773 24.5774 14.6667 22 14.6667C19.4227 14.6667 17.3334 12.5773 17.3334 10C17.3334 7.42268 19.4227 5.33334 22 5.33334C24.5774 5.33334 26.6667 7.42268 26.6667 10ZM24.6667 10C24.6667 11.4728 23.4728 12.6667 22 12.6667C20.5273 12.6667 19.3334 11.4728 19.3334 10C19.3334 8.52725 20.5273 7.33334 22 7.33334C23.4728 7.33334 24.6667 8.52725 24.6667 10Z" fill="white"/>
<path fill-rule="evenodd" clip-rule="evenodd" d="M10 16.6667C5.94993 16.6667 2.66669 19.9499 2.66669 24C2.66669 25.4728 3.86059 26.6667 5.33335 26.6667H14.6667C16.1394 26.6667 17.3334 25.4728 17.3334 24C17.3334 19.9499 14.0501 16.6667 10 16.6667ZM4.66669 24C4.66669 24.3682 4.96516 24.6667 5.33335 24.6667H14.6667C15.0349 24.6667 15.3334 24.3682 15.3334 24C15.3334 21.0545 12.9455 18.6667 10 18.6667C7.0545 18.6667 4.66669 21.0545 4.66669 24Z" fill="white"/>
<path d="M19.2879 19.4066C20.0818 18.9367 21.0078 18.6667 22 18.6667C24.9456 18.6667 27.3334 21.0545 27.3334 24C27.3334 24.3682 27.0349 24.6667 26.6667 24.6667H20.0843C19.532 24.6667 19.0843 25.1144 19.0843 25.6667C19.0843 26.219 19.532 26.6667 20.0843 26.6667H26.6667C28.1395 26.6667 29.3334 25.4728 29.3334 24C29.3334 19.9499 26.0501 16.6667 22 16.6667C20.6396 16.6667 19.3629 17.038 18.2691 17.6855C17.7938 17.9669 17.6366 18.5802 17.918 19.0555C18.1993 19.5307 18.8126 19.6879 19.2879 19.4066Z" fill="white"/>
</svg>
