<svg width="32" height="32" viewBox="0 0 32 32" fill="none" xmlns="http://www.w3.org/2000/svg">
<path d="M16 4.66666C9.74079 4.66666 4.66669 9.74076 4.66669 16V23C4.66669 23.5523 4.21897 24 3.66669 24C3.1144 24 2.66669 23.5523 2.66669 23V16C2.66669 8.63619 8.63622 2.66666 16 2.66666C23.3638 2.66666 29.3334 8.63619 29.3334 16V23C29.3334 23.5523 28.8856 24 28.3334 24C27.7811 24 27.3334 23.5523 27.3334 23V16C27.3334 9.74076 22.2592 4.66666 16 4.66666Z" fill="white"/>
<path fill-rule="evenodd" clip-rule="evenodd" d="M9.33335 17.3333C7.86059 17.3333 6.66669 18.5272 6.66669 20V26.6667C6.66669 28.1394 7.86059 29.3333 9.33335 29.3333H10.6667C12.1394 29.3333 13.3334 28.1394 13.3334 26.6667V20C13.3334 18.5272 12.1394 17.3333 10.6667 17.3333H9.33335ZM10.6667 19.3333H9.33335C8.96516 19.3333 8.66669 19.6318 8.66669 20V26.6667C8.66669 27.0348 8.96516 27.3333 9.33335 27.3333H10.6667C11.0349 27.3333 11.3334 27.0348 11.3334 26.6667V20C11.3334 19.6318 11.0349 19.3333 10.6667 19.3333Z" fill="white"/>
<path fill-rule="evenodd" clip-rule="evenodd" d="M18.6667 20C18.6667 18.5272 19.8606 17.3333 21.3334 17.3333H22.6667C24.1394 17.3333 25.3334 18.5272 25.3334 20V26.6667C25.3334 28.1394 24.1394 29.3333 22.6667 29.3333H21.3334C19.8606 29.3333 18.6667 28.1394 18.6667 26.6667V20ZM21.3334 19.3333H22.6667C23.0349 19.3333 23.3334 19.6318 23.3334 20V26.6667C23.3334 27.0348 23.0349 27.3333 22.6667 27.3333H21.3334C20.9652 27.3333 20.6667 27.0348 20.6667 26.6667V20C20.6667 19.6318 20.9652 19.3333 21.3334 19.3333Z" fill="white"/>
</svg>
