<svg width="32" height="32" viewBox="0 0 32 32" fill="none" xmlns="http://www.w3.org/2000/svg">
<path fill-rule="evenodd" clip-rule="evenodd" d="M16 10.5895L14.3648 8.26742C13.3962 6.89194 11.8022 6 10 6C7.0545 6 4.66669 8.38781 4.66669 11.3333C4.66669 14.6789 6.4999 17.7376 8.97702 20.3182C11.4319 22.8757 14.2973 24.728 15.8445 25.6306C15.9468 25.6903 16.0533 25.6903 16.1555 25.6306C17.7027 24.728 20.5682 22.8757 23.023 20.3182C25.5001 17.7376 27.3334 14.6789 27.3334 11.3333C27.3334 8.38781 24.9455 6 22 6C20.1979 6 18.6039 6.89194 17.6353 8.26742L16 10.5895ZM14.611 5.6307C13.3513 4.61089 11.747 4 10 4C5.94993 4 2.66669 7.28324 2.66669 11.3333C2.66669 19.5141 11.59 25.464 14.8367 27.3581C15.5617 27.7811 16.4383 27.7811 17.1633 27.3581C20.4101 25.464 29.3334 19.5141 29.3334 11.3333C29.3334 7.28324 26.0501 4 22 4C20.253 4 18.6487 4.61089 17.389 5.6307C16.8603 6.05871 16.3924 6.55875 16 7.11589C15.6077 6.55875 15.1397 6.05871 14.611 5.6307Z" fill="white"/>
</svg>
