<svg width="32" height="32" viewBox="0 0 32 32" fill="none" xmlns="http://www.w3.org/2000/svg">
<path d="M15.2346 14.1522C15.4772 14.0517 15.7373 14 16 14C16.5522 14 17 13.5523 17 13C17 12.4477 16.5522 12 16 12C15.4747 12 14.9545 12.1035 14.4692 12.3045C13.9839 12.5055 13.543 12.8001 13.1715 13.1716C12.8001 13.543 12.5055 13.984 12.3044 14.4693C12.1034 14.9546 12 15.4747 12 16C12 16.5523 12.4477 17 13 17C13.5522 17 14 16.5523 14 16C14 15.7373 14.0517 15.4773 14.1522 15.2346C14.2527 14.992 14.4 14.7715 14.5857 14.5858C14.7715 14.4001 14.9919 14.2527 15.2346 14.1522Z" fill="white"/>
<path fill-rule="evenodd" clip-rule="evenodd" d="M16 24C20.4182 24 24 20.4183 24 16C24 11.5817 20.4182 7.99999 16 7.99999C11.5817 7.99999 7.99996 11.5817 7.99996 16C7.99996 20.4183 11.5817 24 16 24ZM16 22C19.3137 22 22 19.3137 22 16C22 12.6863 19.3137 9.99999 16 9.99999C12.6863 9.99999 9.99996 12.6863 9.99996 16C9.99996 19.3137 12.6863 22 16 22Z" fill="white"/>
<path fill-rule="evenodd" clip-rule="evenodd" d="M16 29.3333C23.3638 29.3333 29.3333 23.3638 29.3333 16C29.3333 8.63619 23.3638 2.66666 16 2.66666C8.63616 2.66666 2.66663 8.63619 2.66663 16C2.66663 23.3638 8.63616 29.3333 16 29.3333ZM16 27.3333C22.2592 27.3333 27.3333 22.2592 27.3333 16C27.3333 9.74076 22.2592 4.66666 16 4.66666C9.74073 4.66666 4.66663 9.74076 4.66663 16C4.66663 22.2592 9.74073 27.3333 16 27.3333Z" fill="white"/>
</svg>
