<svg width="32" height="32" viewBox="0 0 32 32" fill="none" xmlns="http://www.w3.org/2000/svg">
<path fill-rule="evenodd" clip-rule="evenodd" d="M27.4624 6.34602C28.7253 6.68407 29.7177 7.6765 30.0557 8.93937H30.0533C30.6666 11.2261 30.6666 15.9998 30.6666 15.9998C30.6666 15.9998 30.6666 20.7736 30.0533 23.0603C29.7153 24.3232 28.7228 25.3156 27.46 25.6537C25.1733 26.267 16 26.267 16 26.267C16 26.267 6.82667 26.267 4.53999 25.6537C3.27712 25.3156 2.28469 24.3232 1.94664 23.0603C1.33331 20.7736 1.33331 15.9998 1.33331 15.9998C1.33331 15.9998 1.33331 11.2261 1.94664 8.93937C2.28469 7.6765 3.27712 6.68407 4.53999 6.34602C6.82667 5.7327 16 5.7327 16 5.7327C16 5.7327 25.1733 5.7327 27.4624 6.34602ZM20.6894 15.9999L13.0663 20.3994V11.6004L20.6894 15.9999Z" fill="white"/>
</svg>
