<svg width="32" height="32" viewBox="0 0 32 32" fill="none" xmlns="http://www.w3.org/2000/svg">
<path d="M24.5266 8.01183C23.0903 7.07504 22.0533 5.57678 21.73 3.83008C21.6601 3.45252 21.6218 3.06426 21.6218 2.66666H17.0371L17.0296 21.0402C16.9525 23.0977 15.2593 24.7491 13.1831 24.7491C12.5379 24.7491 11.9302 24.5879 11.3954 24.3061C10.1688 23.6604 9.32949 22.3746 9.32949 20.895C9.32949 18.7699 11.0584 17.041 13.1831 17.041C13.5798 17.041 13.96 17.1064 14.3203 17.2191V12.5386C13.9476 12.4879 13.5691 12.4563 13.1831 12.4563C8.53072 12.4567 4.74524 16.2422 4.74524 20.895C4.74524 23.7499 6.17181 26.2763 8.34772 27.8039C9.71819 28.7661 11.3856 29.3333 13.1835 29.3333C17.8364 29.3333 21.6218 25.5478 21.6218 20.895V11.5783C23.4197 12.869 25.6228 13.6295 28 13.6295V9.0448C26.7195 9.0448 25.5266 8.66412 24.5266 8.01183Z" fill="white"/>
</svg>
