<svg width="32" height="32" viewBox="0 0 32 32" fill="none" xmlns="http://www.w3.org/2000/svg">
<path d="M20.3934 12.236C20.051 12.8325 19.5922 13.3541 19.0443 13.7699C18.4965 14.1857 17.8707 14.4873 17.2041 14.6567C16.5375 14.8261 15.8437 14.8599 15.1638 14.7561C14.4839 14.6523 13.8317 14.413 13.246 14.0524C12.8149 13.7857 12.4249 13.4577 12.0882 13.0786C11.202 12.0796 10.7405 10.7742 10.8018 9.44014C10.8091 9.29088 10.8216 9.14205 10.8411 8.99389C10.8604 8.84787 10.8861 8.7025 10.9179 8.55888C10.9505 8.41144 10.9896 8.26567 11.0351 8.12158C11.0793 7.98134 11.1297 7.84321 11.1863 7.7072C11.2449 7.56579 11.3103 7.42738 11.3808 7.29157C11.4551 7.14855 11.5374 7.00941 11.6253 6.87433C11.7063 6.74975 11.7926 6.6289 11.8842 6.5118C11.9836 6.38416 12.0892 6.26103 12.2006 6.14374C12.313 6.02537 12.4304 5.91226 12.5529 5.80442C12.6777 5.69453 12.8085 5.59174 12.9433 5.49449C13.0127 5.44436 13.0835 5.39613 13.1556 5.34982C11.6913 6.09801 10.5775 7.38904 10.052 8.94723C9.52661 10.5054 9.63118 12.2073 10.3434 13.6894C10.3575 13.7187 10.3718 13.7479 10.3864 13.777L10.4064 13.8165C10.4095 13.8248 10.4136 13.8327 10.4185 13.8401C10.4257 13.8482 10.4283 13.8481 10.4371 13.8477L10.4417 13.8476C10.5082 13.8464 10.5747 13.8467 10.6411 13.8482C10.7639 13.8508 10.8865 13.8578 11.0089 13.8692C12.1408 13.9761 13.2054 14.455 14.0363 15.231C14.8673 16.0069 15.4179 17.0362 15.602 18.1582C15.6852 18.6715 15.6908 19.1943 15.6185 19.7093C15.4814 20.6804 15.0683 21.5918 14.4285 22.3352C14.0616 22.7611 13.6283 23.1248 13.1452 23.4124C12.1809 23.9818 11.0573 24.2216 9.94456 24.0954C9.74333 24.0724 9.5436 24.0377 9.34639 23.9915C9.21866 23.9615 9.0922 23.9263 8.96714 23.8866C9.52897 24.1355 10.1244 24.3003 10.7343 24.3757C11.3033 24.4459 11.8792 24.439 12.4464 24.3551C13.4607 24.204 14.4226 23.8067 15.2479 23.1979C15.8536 22.7515 16.3751 22.2009 16.7879 21.5718C16.8058 21.5445 16.8234 21.5171 16.8409 21.4896L16.8466 21.4813C16.8538 21.4714 16.8624 21.4594 16.8609 21.4507C16.8541 21.4328 16.845 21.416 16.8338 21.4005C16.7994 21.336 16.7663 21.2707 16.7347 21.2046C16.6712 21.072 16.6134 20.9368 16.5614 20.7991C16.4562 20.5199 16.3756 20.2321 16.3206 19.9388C16.2029 19.3085 16.2032 18.6618 16.3217 18.0316C16.4225 17.4963 16.6083 16.9805 16.8723 16.504C17.3126 15.7043 17.9582 15.0365 18.7426 14.5694C19.527 14.1024 20.4217 13.853 21.3346 13.8471C21.4607 13.8462 21.5867 13.8498 21.7126 13.858C21.8341 13.8661 21.9551 13.8783 22.0758 13.8946C22.1953 13.9109 22.3141 13.9315 22.4323 13.9563C22.548 13.9807 22.6627 14.009 22.7766 14.0411C22.8881 14.0727 22.9985 14.1081 23.1077 14.1473C23.2184 14.187 23.3276 14.2305 23.4353 14.2778C23.5451 14.3258 23.6531 14.3777 23.7592 14.4337C23.8651 14.4894 23.9691 14.5488 24.0711 14.6117C24.1668 14.671 24.261 14.733 24.3525 14.7987C24.4468 14.8664 24.539 14.9369 24.629 15.0103C24.7219 15.0858 24.8115 15.1655 24.8987 15.2475C24.9915 15.3349 25.0809 15.4257 25.167 15.5198C25.2529 15.6135 25.3351 15.7103 25.4137 15.8104C25.5014 15.9217 25.5849 16.0365 25.6628 16.1549C25.7428 16.2765 25.8185 16.4013 25.8883 16.5291C25.9856 16.7074 26.0723 16.8914 26.1479 17.0799C26.2293 17.2849 26.298 17.4948 26.3534 17.7082C26.2034 16.5665 25.7425 15.4879 25.0211 14.5903C24.4908 13.9294 23.8332 13.3817 23.0873 12.9795C22.3223 12.5673 21.4799 12.3188 20.6137 12.2498C20.5404 12.2439 20.467 12.2394 20.3934 12.236Z" fill="white"/>
<path fill-rule="evenodd" clip-rule="evenodd" d="M28.7999 16C28.7999 23.0693 23.0692 28.8 16 28.8C8.93071 28.8 3.19995 23.0693 3.19995 16C3.19995 8.93077 8.93071 3.20001 16 3.20001C23.0692 3.20001 28.7999 8.93077 28.7999 16ZM27.1999 16C27.1999 22.1856 22.1855 27.2 16 27.2C9.81436 27.2 4.79995 22.1856 4.79995 16C4.79995 9.81442 9.81436 4.80001 16 4.80001C22.1855 4.80001 27.1999 9.81442 27.1999 16Z" fill="white"/>
</svg>
