<svg width="32" height="32" viewBox="0 0 32 32" fill="none" xmlns="http://www.w3.org/2000/svg">
<path fill-rule="evenodd" clip-rule="evenodd" d="M22.6667 9.33332C22.6667 13.0152 19.6819 16 16 16C12.3181 16 9.33337 13.0152 9.33337 9.33332C9.33337 5.65142 12.3181 2.66666 16 2.66666C19.6819 2.66666 22.6667 5.65142 22.6667 9.33332ZM20.6667 9.33332C20.6667 11.9107 18.5774 14 16 14C13.4227 14 11.3334 11.9107 11.3334 9.33332C11.3334 6.75599 13.4227 4.66666 16 4.66666C18.5774 4.66666 20.6667 6.75599 20.6667 9.33332Z" fill="white"/>
<path fill-rule="evenodd" clip-rule="evenodd" d="M18.6667 18.6667H13.3334C8.9151 18.6667 5.33337 22.2484 5.33337 26.6667C5.33337 28.1394 6.52728 29.3333 8.00004 29.3333H24C25.4728 29.3333 26.6667 28.1394 26.6667 26.6667C26.6667 22.2484 23.085 18.6667 18.6667 18.6667ZM7.33337 26.6667C7.33337 23.3529 10.0197 20.6667 13.3334 20.6667H18.6667C21.9804 20.6667 24.6667 23.3529 24.6667 26.6667C24.6667 27.0348 24.3682 27.3333 24 27.3333H8.00004C7.63185 27.3333 7.33337 27.0348 7.33337 26.6667Z" fill="white"/>
</svg>
