<svg width="32" height="32" viewBox="0 0 32 32" fill="none" xmlns="http://www.w3.org/2000/svg">
<path d="M10.4443 6.35196C12.0888 5.25315 14.0222 4.66666 16 4.66666C17.9778 4.66666 19.9112 5.25315 21.5557 6.35196C23.2002 7.45078 24.4819 9.01256 25.2388 10.8398C25.9957 12.6671 26.1937 14.6777 25.8079 16.6176C25.422 18.5574 24.4696 20.3392 23.0711 21.7377C22.6805 22.1283 22.6805 22.7614 23.0711 23.1519C23.4616 23.5425 24.0948 23.5425 24.4853 23.1519C26.1635 21.4737 27.3064 19.3355 27.7694 17.0077C28.2324 14.68 27.9948 12.2672 27.0866 10.0745C26.1783 7.88174 24.6402 6.0076 22.6668 4.68902C20.6935 3.37044 18.3734 2.66666 16 2.66666C13.6266 2.66666 11.3066 3.37044 9.33316 4.68902C7.35977 6.0076 5.8217 7.88174 4.91345 10.0745C4.0052 12.2672 3.76756 14.68 4.23058 17.0077C4.6936 19.3355 5.83649 21.4737 7.51472 23.1519C7.90525 23.5425 8.53841 23.5425 8.92894 23.1519C9.31946 22.7614 9.31946 22.1282 8.92894 21.7377C7.53041 20.3392 6.578 18.5574 6.19215 16.6176C5.8063 14.6777 6.00433 12.6671 6.76121 10.8398C7.51809 9.01256 8.79981 7.45077 10.4443 6.35196Z" fill="white"/>
<path d="M12.6666 9.67784C13.6533 9.01855 14.8133 8.66666 16 8.66666C17.1867 8.66666 18.3467 9.01855 19.3334 9.67784C20.3201 10.3371 21.0892 11.2742 21.5433 12.3706C21.9974 13.4669 22.1162 14.6733 21.8847 15.8372C21.6532 17.0011 21.0818 18.0702 20.2426 18.9093C19.8521 19.2998 19.8521 19.933 20.2426 20.3235C20.6332 20.714 21.2663 20.714 21.6569 20.3235C22.7757 19.2047 23.5376 17.7792 23.8463 16.2274C24.155 14.6755 23.9965 13.067 23.391 11.6052C22.7855 10.1434 21.7602 8.89395 20.4446 8.0149C19.129 7.13585 17.5823 6.66666 16 6.66666C14.4178 6.66666 12.871 7.13585 11.5554 8.0149C10.2399 8.89395 9.21447 10.1434 8.60897 11.6052C8.00347 13.067 7.84504 14.6755 8.15372 16.2274C8.4624 17.7792 9.22433 19.2047 10.3432 20.3235C10.7337 20.714 11.3668 20.714 11.7574 20.3235C12.1479 19.933 12.1479 19.2998 11.7574 18.9093C10.9182 18.0702 10.3468 17.0011 10.1153 15.8372C9.88378 14.6733 10.0026 13.4669 10.4567 12.3706C10.9109 11.2742 11.6799 10.3371 12.6666 9.67784Z" fill="white"/>
<path fill-rule="evenodd" clip-rule="evenodd" d="M16 18.6667C18.2091 18.6667 20 16.8758 20 14.6667C20 12.4575 18.2091 10.6667 16 10.6667C13.7909 10.6667 12 12.4575 12 14.6667C12 16.8758 13.7909 18.6667 16 18.6667ZM16 16.6667C17.1046 16.6667 18 15.7712 18 14.6667C18 13.5621 17.1046 12.6667 16 12.6667C14.8954 12.6667 14 13.5621 14 14.6667C14 15.7712 14.8954 16.6667 16 16.6667Z" fill="white"/>
<path fill-rule="evenodd" clip-rule="evenodd" d="M12 24C12 21.7909 13.7909 20 16 20C18.2091 20 20 21.7909 20 24V26.6667C20 28.1394 18.8061 29.3333 17.3333 29.3333H14.6667C13.1939 29.3333 12 28.1394 12 26.6667V24ZM18 24V26.6667C18 27.0348 17.7015 27.3333 17.3333 27.3333H14.6667C14.2985 27.3333 14 27.0348 14 26.6667V24C14 22.8954 14.8954 22 16 22C17.1046 22 18 22.8954 18 24Z" fill="white"/>
</svg>
