<svg width="32" height="32" viewBox="0 0 32 32" fill="none" xmlns="http://www.w3.org/2000/svg">
<path d="M16.0592 21.5388C18.3619 21.5388 19.9019 20.2482 19.9019 17.6962C19.9019 15.7455 18.6992 14.1908 16.7046 14.1908C15.7512 14.1908 14.9592 14.6015 14.4019 15.4375L14.5632 12.2988H19.3299V10.7295H12.6126L12.3779 16.8895H14.5486C14.6806 16.1122 15.3259 15.7015 16.0446 15.7015C17.1886 15.7015 17.6872 16.6695 17.6872 17.7695C17.6872 18.9428 17.1739 19.9842 15.9566 19.9842C15.0766 19.9842 14.4312 19.5148 14.4019 18.5762H12.2166C12.2166 20.8788 14.0939 21.5388 16.0592 21.5388Z" fill="white"/>
<path fill-rule="evenodd" clip-rule="evenodd" d="M4 6.66667C4 5.19391 5.19391 4 6.66667 4H25.3333C26.8061 4 28 5.19391 28 6.66667V25.3333C28 26.8061 26.8061 28 25.3333 28H6.66667C5.19391 28 4 26.8061 4 25.3333V6.66667ZM6.66667 6H25.3333C25.7015 6 26 6.29848 26 6.66667V25.3333C26 25.7015 25.7015 26 25.3333 26H6.66667C6.29848 26 6 25.7015 6 25.3333V6.66667C6 6.29848 6.29848 6 6.66667 6Z" fill="white"/>
</svg>
