<svg width="32" height="32" viewBox="0 0 32 32" fill="none" xmlns="http://www.w3.org/2000/svg">
<path d="M12.0405 21.3335H19.6965V19.7202H14.6072C14.8841 19.4745 15.2058 19.2079 15.55 18.9226C17.3019 17.4705 19.6379 15.5342 19.6379 13.4135C19.6379 11.3895 17.8045 10.4655 16.0592 10.4655C14.1085 10.4655 12.2605 11.3602 12.2165 13.6628H14.4312C14.4605 12.6802 15.0032 12.0202 15.9565 12.0202C16.8072 12.0202 17.3792 12.5922 17.3792 13.5015C17.3792 15.3714 13.9505 18.0792 12.3375 19.3531C12.2299 19.438 12.1304 19.5166 12.0405 19.5882V21.3335Z" fill="white"/>
<path fill-rule="evenodd" clip-rule="evenodd" d="M4 6.66667C4 5.19391 5.19391 4 6.66667 4H25.3333C26.8061 4 28 5.19391 28 6.66667V25.3333C28 26.8061 26.8061 28 25.3333 28H6.66667C5.19391 28 4 26.8061 4 25.3333V6.66667ZM6.66667 6H25.3333C25.7015 6 26 6.29848 26 6.66667V25.3333C26 25.7015 25.7015 26 25.3333 26H6.66667C6.29848 26 6 25.7015 6 25.3333V6.66667C6 6.29848 6.29848 6 6.66667 6Z" fill="white"/>
</svg>
