<svg width="32" height="32" viewBox="0 0 32 32" fill="none" xmlns="http://www.w3.org/2000/svg">
<path fill-rule="evenodd" clip-rule="evenodd" d="M18.7285 19.0308H20.3565V17.5348H18.7285V10.7295H16.1912L11.8058 17.1242V19.0308H16.6752V21.3335H18.7285V19.0308ZM13.3312 17.5495L16.7338 12.4308L16.7045 17.5495H13.3312Z" fill="white"/>
<path fill-rule="evenodd" clip-rule="evenodd" d="M4 6.66667C4 5.19391 5.19391 4 6.66667 4H25.3333C26.8061 4 28 5.19391 28 6.66667V25.3333C28 26.8061 26.8061 28 25.3333 28H6.66667C5.19391 28 4 26.8061 4 25.3333V6.66667ZM6.66667 6H25.3333C25.7015 6 26 6.29848 26 6.66667V25.3333C26 25.7015 25.7015 26 25.3333 26H6.66667C6.29848 26 6 25.7015 6 25.3333V6.66667C6 6.29848 6.29848 6 6.66667 6Z" fill="white"/>
</svg>
