<svg width="32" height="32" viewBox="0 0 32 32" fill="none" xmlns="http://www.w3.org/2000/svg">
<path d="M15.457 21.3335H17.6277V10.7295H15.7797C14.8557 11.5948 14.2397 12.0202 13.0517 12.4308V14.2348C13.917 13.9268 14.7677 13.4722 15.457 12.8415V21.3335Z" fill="white"/>
<path fill-rule="evenodd" clip-rule="evenodd" d="M4 6.66667C4 5.19391 5.19391 4 6.66667 4H25.3333C26.8061 4 28 5.19391 28 6.66667V25.3333C28 26.8061 26.8061 28 25.3333 28H6.66667C5.19391 28 4 26.8061 4 25.3333V6.66667ZM6.66667 6H25.3333C25.7015 6 26 6.29848 26 6.66667V25.3333C26 25.7015 25.7015 26 25.3333 26H6.66667C6.29848 26 6 25.7015 6 25.3333V6.66667C6 6.29848 6.29848 6 6.66667 6Z" fill="white"/>
</svg>
