<svg width="32" height="32" viewBox="0 0 32 32" fill="none" xmlns="http://www.w3.org/2000/svg">
<path d="M15.8098 21.5242C17.6872 21.5242 19.9018 20.7762 19.9018 18.4148C19.9018 16.8162 18.8605 16.0095 17.4232 15.7895C18.7432 15.5842 19.6818 14.6748 19.6818 13.3255C19.6818 11.1988 17.5992 10.4655 15.8978 10.4655C14.1965 10.4655 11.9965 11.3308 11.9965 13.4575H14.2552C14.2552 12.3428 15.1792 11.9762 15.8538 11.9762C16.7192 11.9762 17.5258 12.5188 17.5258 13.5162C17.5258 14.8508 16.3378 15.1588 15.2965 15.1588C15.1058 15.1588 14.9152 15.1442 14.7245 15.1295V16.6108C14.8005 16.6061 14.878 16.5998 14.9561 16.5935C15.1191 16.5802 15.2845 16.5668 15.4432 16.5668C16.4845 16.5668 17.7018 16.9042 17.7018 18.2388C17.7018 19.4122 16.8218 19.9988 15.7952 19.9988C14.8272 19.9988 14.0352 19.4562 14.0058 18.3708H11.8058C11.9525 20.7762 13.7272 21.5242 15.8098 21.5242Z" fill="white"/>
<path fill-rule="evenodd" clip-rule="evenodd" d="M4 6.66667C4 5.19391 5.19391 4 6.66667 4H25.3333C26.8061 4 28 5.19391 28 6.66667V25.3333C28 26.8061 26.8061 28 25.3333 28H6.66667C5.19391 28 4 26.8061 4 25.3333V6.66667ZM6.66667 6H25.3333C25.7015 6 26 6.29848 26 6.66667V25.3333C26 25.7015 25.7015 26 25.3333 26H6.66667C6.29848 26 6 25.7015 6 25.3333V6.66667C6 6.29848 6.29848 6 6.66667 6Z" fill="white"/>
</svg>
