<svg width="32" height="32" viewBox="0 0 32 32" fill="none" xmlns="http://www.w3.org/2000/svg">
<path fill-rule="evenodd" clip-rule="evenodd" d="M11.5788 9.95077L4.36633 10.9988C3.2727 11.1577 2.83602 12.5017 3.62737 13.2731L8.8464 18.3604L7.61436 25.5437C7.42754 26.6329 8.57079 27.4636 9.54896 26.9493L16 23.5578L22.4511 26.9493C23.4293 27.4636 24.5725 26.6329 24.3857 25.5437L23.1537 18.3604L28.3727 13.2731C29.164 12.5017 28.7274 11.1577 27.6337 10.9988L20.4212 9.95077L17.1957 3.41512C16.7066 2.42413 15.2935 2.42413 14.8044 3.41512L11.5788 9.95077ZM19.0931 11.7788L16 5.51157L12.907 11.7788L5.9907 12.7838L10.9954 17.6621L9.81392 24.5505L16 21.2982L22.1861 24.5505L21.0047 17.6621L26.0094 12.7838L19.0931 11.7788Z" fill="white"/>
</svg>
