<svg width="32" height="32" viewBox="0 0 32 32" fill="none" xmlns="http://www.w3.org/2000/svg">
<path d="M7.0433 5.62917C7.43382 6.01969 7.43382 6.65286 7.0433 7.04338C5.86709 8.21959 4.93407 9.61595 4.29751 11.1527C3.66095 12.6895 3.33331 14.3367 3.33331 16.0001C3.33331 17.6635 3.66095 19.3106 4.29751 20.8474C4.93406 22.3842 5.86708 23.7805 7.04329 24.9568C7.43382 25.3473 7.43382 25.9804 7.04329 26.371C6.65277 26.7615 6.0196 26.7615 5.62908 26.371C4.26715 25.009 3.18682 23.3922 2.44975 21.6128C1.71268 19.8333 1.33331 17.9261 1.33331 16.0001C1.33331 14.074 1.71268 12.1668 2.44975 10.3874C3.18682 8.60793 4.26716 6.99109 5.62908 5.62917C6.01961 5.23864 6.65277 5.23864 7.0433 5.62917Z" fill="white"/>
<path d="M10.8145 9.4004C11.2051 9.79093 11.2051 10.4241 10.8145 10.8146C10.1336 11.4956 9.5934 12.304 9.22486 13.1937C8.85633 14.0834 8.66665 15.037 8.66665 16.0001C8.66665 16.9631 8.85633 17.9167 9.22486 18.8064C9.5934 19.6961 10.1336 20.5046 10.8145 21.1855C11.2051 21.576 11.2051 22.2092 10.8145 22.5997C10.424 22.9903 9.79084 22.9903 9.40032 22.5997C8.53364 21.7331 7.84615 20.7042 7.3771 19.5718C6.90806 18.4394 6.66665 17.2257 6.66665 16.0001C6.66665 14.7744 6.90806 13.5607 7.3771 12.4284C7.84615 11.296 8.53364 10.2671 9.40032 9.4004C9.79084 9.00988 10.424 9.00988 10.8145 9.4004Z" fill="white"/>
<path fill-rule="evenodd" clip-rule="evenodd" d="M16 20.0001C18.2091 20.0001 20 18.2092 20 16.0001C20 13.7909 18.2091 12.0001 16 12.0001C13.7908 12.0001 12 13.7909 12 16.0001C12 18.2092 13.7908 20.0001 16 20.0001ZM16 18.0001C17.1045 18.0001 18 17.1046 18 16.0001C18 14.8955 17.1045 14.0001 16 14.0001C14.8954 14.0001 14 14.8955 14 16.0001C14 17.1046 14.8954 18.0001 16 18.0001Z" fill="white"/>
<path d="M21.1854 21.1855C20.7949 21.576 20.7949 22.2092 21.1854 22.5997C21.576 22.9903 22.2091 22.9903 22.5996 22.5997C23.4663 21.7331 24.1538 20.7042 24.6229 19.5718C25.0919 18.4394 25.3333 17.2257 25.3333 16.0001C25.3333 14.7744 25.0919 13.5607 24.6229 12.4284C24.1538 11.296 23.4663 10.2671 22.5996 9.4004C22.2091 9.00988 21.576 9.00988 21.1854 9.40041C20.7949 9.79093 20.7949 10.4241 21.1854 10.8146C21.8664 11.4956 22.4066 12.304 22.7751 13.1937C23.1436 14.0834 23.3333 15.037 23.3333 16.0001C23.3333 16.9631 23.1436 17.9167 22.7751 18.8064C22.4066 19.6961 21.8664 20.5046 21.1854 21.1855Z" fill="white"/>
<path d="M24.9567 24.9568C24.5661 25.3473 24.5661 25.9804 24.9567 26.371C25.3472 26.7615 25.9804 26.7615 26.3709 26.371C27.7328 25.009 28.8131 23.3922 29.5502 21.6128C30.2873 19.8333 30.6666 17.9261 30.6666 16.0001C30.6666 14.074 30.2873 12.1668 29.5502 10.3874C28.8131 8.60794 27.7328 6.9911 26.3709 5.62917C25.9804 5.23865 25.3472 5.23865 24.9567 5.62917C24.5661 6.0197 24.5661 6.65286 24.9567 7.04339C26.1329 8.21959 27.0659 9.61596 27.7025 11.1527C28.339 12.6895 28.6666 14.3367 28.6666 16.0001C28.6666 17.6635 28.339 19.3106 27.7025 20.8474C27.0659 22.3842 26.1329 23.7805 24.9567 24.9568Z" fill="white"/>
</svg>
