<svg width="144" height="144" viewBox="0 0 144 144" fill="none" xmlns="http://www.w3.org/2000/svg">
<g clip-path="url(#clip0_195_39315)">
<g filter="url(#filter0_ii_195_39315)">
<g clip-path="url(#clip1_195_39315)">
<rect width="144" height="144" rx="16" fill="white"/>
<rect width="144" height="144" rx="16" fill="url(#paint0_radial_195_39315)" fill-opacity="0.5"/>
<rect x="16" y="16" width="112" height="112" rx="8" fill="black"/>
<path fill-rule="evenodd" clip-rule="evenodd" d="M69.6327 34.9685C70.2916 35.1828 70.6947 35.8467 70.5808 36.5301C69.2334 44.6143 70.2197 52.7462 71.5803 58.9325C71.9261 54.7903 72.8213 51.331 73.837 48.5887C74.7479 46.1292 75.7535 44.2521 76.5402 42.9794C76.9337 42.343 77.2727 41.8572 77.5183 41.5247C77.6411 41.3584 77.7406 41.2304 77.812 41.141C77.8477 41.0963 77.8763 41.0613 77.8973 41.0359L77.923 41.0051L77.9315 40.9951L77.9345 40.9915C77.9351 40.9909 77.9368 40.9888 78.9998 41.8999L77.9368 40.9888C78.339 40.5197 79.0011 40.3696 79.5662 40.6196C80.1313 40.8696 80.4656 41.4604 80.389 42.0736C79.8057 46.7402 80.2312 51.4393 80.913 55.29C81.3978 53.19 82.083 51.3147 82.7981 49.7254C83.6216 47.8954 84.4914 46.4298 85.159 45.417C85.4931 44.91 85.7776 44.515 85.9818 44.2427C86.0839 44.1066 86.166 44.001 86.2243 43.9274L86.2936 43.8411L86.3139 43.8162L86.3204 43.8084L86.3227 43.8056C86.323 43.8052 86.3243 43.8037 87.3998 44.6999L86.3227 43.8056C86.7273 43.32 87.4088 43.1639 87.9833 43.4273C88.5579 43.6908 88.8847 44.3066 88.7808 44.9301C88.1105 48.9515 88.8528 50.5566 89.3503 51.1537C89.603 51.4569 89.8599 51.588 90.0314 51.6485C90.1203 51.6799 90.1893 51.6931 90.2248 51.6983C90.2296 51.699 90.2336 51.6995 90.237 51.6999H95.7998C96.573 51.6999 97.1998 52.3267 97.1998 53.0999C97.1998 53.8731 96.573 54.4999 95.7998 54.4999H90.1998V53.0999C90.1998 54.4999 90.2012 54.4999 90.1998 54.4999L90.1941 54.4999L90.188 54.4999L90.1745 54.4997L90.1424 54.4989C90.1188 54.4982 90.0909 54.4969 90.0588 54.4947C89.9948 54.4904 89.914 54.4826 89.8194 54.4688C89.6306 54.4411 89.3824 54.3887 89.0995 54.2889C88.5272 54.0869 87.8216 53.693 87.1993 52.9462C86.5737 52.1955 86.0966 51.1725 85.8665 49.7909C85.6945 50.1341 85.5219 50.4956 85.3515 50.8744C83.8453 54.2215 82.5304 58.8573 83.189 64.1263C83.277 64.8307 82.824 65.4895 82.1347 65.6593C81.4455 65.8291 80.7382 65.4562 80.4889 64.7915L81.7998 64.2999C80.4889 64.7915 80.4891 64.7919 80.4889 64.7915L80.4842 64.7788L80.4735 64.7499L80.4353 64.6443C80.4025 64.5531 80.3557 64.4205 80.2973 64.2494C80.1804 63.9073 80.0168 63.4107 79.8258 62.7816C79.444 61.5241 78.9517 59.7332 78.5042 57.5855C77.9099 54.7325 77.3882 51.2192 77.3214 47.4729C77.0336 48.1062 76.7436 48.8026 76.4627 49.5612C74.7873 54.0846 73.4231 60.8441 74.7835 69.687C74.8912 70.3866 74.4597 71.0565 73.7782 71.2478C73.0968 71.4391 72.3797 71.0917 72.1075 70.4384L73.3998 69.8999C72.1075 70.4384 72.1077 70.4388 72.1075 70.4384L72.1052 70.4328L72.1003 70.4211L72.0833 70.3794L72.021 70.2247C71.9676 70.0903 71.8908 69.894 71.7948 69.64C71.6029 69.132 71.3342 68.3928 71.0216 67.4551C70.3968 65.5807 69.5954 62.9088 68.8831 59.7036C67.9438 55.4767 67.1517 50.2876 67.1389 44.7584C66.9254 45.3375 66.711 45.9377 66.4988 46.555C64.5831 52.1278 62.9315 58.8662 63.589 64.1263C63.6736 64.803 63.2582 65.4422 62.6055 65.6398C61.9528 65.8375 61.2526 65.536 60.9476 64.926L62.1998 64.2999C60.9476 64.926 60.9478 64.9263 60.9476 64.926L60.9456 64.922L60.9416 64.9139L60.9276 64.8856L60.877 64.7817C60.8335 64.6919 60.7712 64.5614 60.693 64.3937C60.5367 64.0584 60.317 63.5737 60.0586 62.9673C59.5426 61.7557 58.8696 60.0509 58.2407 58.0744C57.4664 55.6407 56.7333 52.718 56.4741 49.7623C55.9083 50.9058 55.4165 52.155 55.1726 53.3745C55.0417 54.0289 54.4672 54.4999 53.7998 54.4999H48.1998C47.4266 54.4999 46.7998 53.8731 46.7998 53.0999C46.7998 52.3267 47.4266 51.6999 48.1998 51.6999H52.7035C53.2596 49.7782 54.1954 47.9694 55.0143 46.6046C55.5097 45.7789 55.9774 45.0912 56.3225 44.6081C56.4953 44.3661 56.6381 44.1745 56.7392 44.0415C56.7897 43.9749 56.8299 43.923 56.8583 43.8866L56.8918 43.8439L56.9016 43.8316L56.9047 43.8277C56.9049 43.8275 56.9066 43.8253 57.9998 44.6999L56.9066 43.8253C57.3047 43.3277 57.9887 43.1617 58.5706 43.4216C59.1525 43.6814 59.4855 44.3015 59.3808 44.9301C58.7371 48.792 59.7011 53.4295 60.9089 57.2254C60.9204 57.2617 60.932 57.2978 60.9435 57.3338C61.4772 53.2794 62.6474 49.1458 63.8508 45.6448C64.8286 42.8004 65.8498 40.3142 66.6266 38.5388C67.0152 37.6504 67.3434 36.9384 67.5753 36.4465C67.6913 36.2005 67.7833 36.0095 67.8468 35.8789L67.9202 35.729L67.9399 35.6893L67.9453 35.6785L67.9468 35.6754C67.947 35.6751 67.9476 35.6738 69.1998 36.2999L67.9468 35.6754C68.2566 35.0557 68.9739 34.7543 69.6327 34.9685Z" fill="white"/>
<text fill="white" xml:space="preserve" style="white-space: pre" font-family="Segoe UI" font-size="20" font-weight="bold" letter-spacing="0em" x="26.2188" y="112.281">Gain Lock</text>
</g>
</g>
</g>
<defs>
<filter id="filter0_ii_195_39315" x="-2" y="0" width="146" height="146" filterUnits="userSpaceOnUse" color-interpolation-filters="sRGB">
<feFlood flood-opacity="0" result="BackgroundImageFix"/>
<feBlend mode="normal" in="SourceGraphic" in2="BackgroundImageFix" result="shape"/>
<feColorMatrix in="SourceAlpha" type="matrix" values="0 0 0 0 0 0 0 0 0 0 0 0 0 0 0 0 0 0 127 0" result="hardAlpha"/>
<feMorphology radius="0.911392" operator="erode" in="SourceAlpha" result="effect1_innerShadow_195_39315"/>
<feOffset/>
<feGaussianBlur stdDeviation="1.82278"/>
<feComposite in2="hardAlpha" operator="arithmetic" k2="-1" k3="1"/>
<feColorMatrix type="matrix" values="0 0 0 0 0 0 0 0 0 0 0 0 0 0 0 0 0 0 0.25 0"/>
<feBlend mode="normal" in2="shape" result="effect1_innerShadow_195_39315"/>
<feColorMatrix in="SourceAlpha" type="matrix" values="0 0 0 0 0 0 0 0 0 0 0 0 0 0 0 0 0 0 127 0" result="hardAlpha"/>
<feMorphology radius="0.5" operator="erode" in="SourceAlpha" result="effect2_innerShadow_195_39315"/>
<feOffset dx="-2" dy="2"/>
<feGaussianBlur stdDeviation="1"/>
<feComposite in2="hardAlpha" operator="arithmetic" k2="-1" k3="1"/>
<feColorMatrix type="matrix" values="0 0 0 0 1 0 0 0 0 1 0 0 0 0 1 0 0 0 0.25 0"/>
<feBlend mode="normal" in2="effect1_innerShadow_195_39315" result="effect2_innerShadow_195_39315"/>
</filter>
<radialGradient id="paint0_radial_195_39315" cx="0" cy="0" r="1" gradientUnits="userSpaceOnUse" gradientTransform="translate(72 72) rotate(49.2296) scale(110.255 127.014)">
<stop stop-color="white"/>
<stop offset="1" stop-color="#7C7C7C"/>
</radialGradient>
<clipPath id="clip0_195_39315">
<path d="M0 16C0 7.16344 7.16344 0 16 0H128C136.837 0 144 7.16344 144 16V128C144 136.837 136.837 144 128 144H16C7.16344 144 0 136.837 0 128V16Z" fill="white"/>
</clipPath>
<clipPath id="clip1_195_39315">
<rect width="144" height="144" rx="16" fill="white"/>
</clipPath>
</defs>
</svg>
