<svg width="32" height="32" viewBox="0 0 32 32" fill="none" xmlns="http://www.w3.org/2000/svg">
<path d="M28 6.3999C22.8142 6.3999 18.1071 9.43089 15.9612 14.1518L14.5821 17.1859C12.6958 21.3356 8.55824 23.9999 3.99995 23.9999C3.55812 23.9999 3.19995 24.3581 3.19995 24.7999C3.19995 25.2417 3.55812 25.5999 3.99995 25.5999C9.18567 25.5999 13.8928 22.5689 16.0387 17.848L17.4178 14.8139C19.3041 10.6642 23.4417 7.9999 28 7.9999C28.4418 7.9999 28.7999 7.64173 28.7999 7.1999C28.7999 6.75807 28.4418 6.3999 28 6.3999Z" fill="white"/>
<path d="M3.99995 6.3999C3.55812 6.3999 3.19995 6.75807 3.19995 7.1999C3.19995 7.64173 3.55812 7.9999 3.99995 7.9999C7.80899 7.9999 11.3246 9.86037 13.4779 12.8936C13.7337 13.2539 14.2331 13.3386 14.5933 13.0829C14.9536 12.8271 15.0383 12.3277 14.7826 11.9674C12.3329 8.51672 8.33372 6.3999 3.99995 6.3999Z" fill="white"/>
<path d="M18.522 19.1062C18.2662 18.7459 17.7668 18.6612 17.4066 18.9169C17.0463 19.1727 16.9616 19.6721 17.2173 20.0324C19.667 23.4831 23.6662 25.5999 28 25.5999C28.4418 25.5999 28.7999 25.2417 28.7999 24.7999C28.7999 24.3581 28.4418 23.9999 28 23.9999C24.1909 23.9999 20.6753 22.1394 18.522 19.1062Z" fill="white"/>
</svg>