<svg xmlns="http://www.w3.org/2000/svg" fill="currentColor" viewBox="0 0 20 20" width="20" height="20" aria-label="Icon" role="img"><rect width="20" height="20" fill="#FF0000"/><path fill-rule="evenodd" d="M9 8a2 2 0 1 1-4 0 2 2 0 0 1 4 0M8 8a1 1 0 1 1-2 0 1 1 0 0 1 2 0" clip-rule="evenodd" fill="black"/><path d="M12 8a1 1 0 1 0 0-2 1 1 0 0 0 0 2M15 9a1 1 0 1 1-2 0 1 1 0 0 1 2 0" fill="black"/><path fill-rule="evenodd" d="m12.794 13.47 1.484 2.375A2.46 2.46 0 0 0 16.362 17a2.44 2.44 0 0 0 2.435-2.635C17.839 3 16.53 3 10 3S2.161 3 1.203 14.365A2.44 2.44 0 0 0 3.638 17c.847 0 1.635-.436 2.084-1.155l1.484-2.375a1 1 0 0 1 .848-.47h3.892a1 1 0 0 1 .848.47m2.332 1.845-1.484-2.375a2 2 0 0 0-1.696-.94H8.054a2 2 0 0 0-1.696.94l-1.484 2.375A1.46 1.46 0 0 1 3.638 16 1.44 1.44 0 0 1 2.2 14.449c.239-2.834.496-4.908.84-6.435.345-1.537.755-2.406 1.22-2.929.433-.487.999-.768 1.911-.921C7.126 4.004 8.337 4 10 4s2.874.003 3.829.164c.912.153 1.478.434 1.912.921.464.523.874 1.392 1.22 2.929.343 1.527.6 3.6.84 6.435.07.83-.592 1.551-1.44 1.551-.502 0-.969-.259-1.235-.685" clip-rule="evenodd" fill="black"/></svg>