<svg xmlns="http://www.w3.org/2000/svg" fill="currentColor" viewBox="0 0 20 20" width="20" height="20" aria-label="Icon" role="img"><rect width="20" height="20" fill="#FFFF00"/><path d="M7.5 8a.5.5 0 0 0 0 1h5a.5.5 0 0 0 0-1zM7 11.5a.5.5 0 0 1 .5-.5h3a.5.5 0 0 1 0 1h-3a.5.5 0 0 1-.5-.5" fill="black"/><path fill-rule="evenodd" d="M10 18a8 8 0 1 0-7.073-4.258l-1.16 3.869a.5.5 0 0 0 .622.622l3.869-1.16A7.96 7.96 0 0 0 10 18m-7.009-.991 1.012-3.373-.192-.362a7 7 0 1 1 2.915 2.915l-.362-.192z" clip-rule="evenodd" fill="black"/></svg>