<svg width="25" height="24" viewBox="0 0 25 24" fill="none" xmlns="http://www.w3.org/2000/svg">
<path d="M11.4453 14.8242H7.5V18.7598H6.20117V14.8242H2.26562V13.5156H6.20117V9.58008H7.5V13.5156H11.4453V14.8242ZM15.293 19.6582V17.959C16.25 18.5775 17.2233 18.8867 18.2129 18.8867C19.2025 18.8867 20 18.6068 20.6055 18.0469C21.2109 17.487 21.5137 16.7448 21.5137 15.8203C21.5137 14.9023 21.2044 14.1862 20.5859 13.6719C19.9674 13.1576 19.082 12.9004 17.9297 12.9004C17.5391 12.9004 16.8066 12.9395 15.7324 13.0176V5.99609H22.5098V7.44141H17.2461V11.543C17.6758 11.5169 18.0729 11.5039 18.4375 11.5039C19.9349 11.5039 21.0938 11.8815 21.9141 12.6367C22.7344 13.3854 23.1445 14.4141 23.1445 15.7227C23.1445 17.0768 22.7018 18.1673 21.8164 18.9941C20.9375 19.821 19.7298 20.2344 18.1934 20.2344C16.8978 20.2344 15.931 20.0423 15.293 19.6582Z" fill="white"/>
</svg>