<svg width="25" height="24" viewBox="0 0 25 24" fill="none" xmlns="http://www.w3.org/2000/svg">
<path d="M11.4453 14.8242H7.5V18.7598H6.20117V14.8242H2.26562V13.5156H6.20117V9.58008H7.5V13.5156H11.4453V14.8242ZM17.6953 12.6562V12.6172C16.0156 11.8359 15.1758 10.7031 15.1758 9.21875C15.1758 8.20964 15.5599 7.38281 16.3281 6.73828C17.0964 6.08724 18.0859 5.76172 19.2969 5.76172C20.3906 5.76172 21.2891 6.06445 21.9922 6.66992C22.6953 7.27539 23.0469 8.05339 23.0469 9.00391C23.0469 10.5534 22.181 11.7578 20.4492 12.6172V12.6562C22.4935 13.3854 23.5156 14.6484 23.5156 16.4453C23.5156 17.6042 23.099 18.5254 22.2656 19.209C21.4323 19.8926 20.2734 20.2344 18.7891 20.2344C17.5911 20.2344 16.6048 19.8958 15.8301 19.2188C15.0553 18.5417 14.668 17.6628 14.668 16.582C14.668 14.7852 15.6771 13.4766 17.6953 12.6562ZM21.4062 9.19922C21.4062 8.55469 21.2044 8.04688 20.8008 7.67578C20.3971 7.30469 19.847 7.11914 19.1504 7.11914C18.4993 7.11914 17.946 7.31445 17.4902 7.70508C17.041 8.08919 16.8164 8.58073 16.8164 9.17969C16.8164 10.3971 17.5749 11.3151 19.0918 11.9336C20.6348 11.2956 21.4062 10.3841 21.4062 9.19922ZM18.9844 13.418C17.2005 14.1276 16.3086 15.1562 16.3086 16.5039C16.3086 17.2005 16.5658 17.7734 17.0801 18.2227C17.6009 18.6654 18.2845 18.8867 19.1309 18.8867C19.9382 18.8867 20.5957 18.6686 21.1035 18.2324C21.6178 17.7897 21.875 17.2331 21.875 16.5625C21.875 15.1562 20.9115 14.1081 18.9844 13.418Z" fill="white"/>
</svg>