<svg width="25" height="24" viewBox="0 0 25 24" fill="none" xmlns="http://www.w3.org/2000/svg">
<path d="M11.4453 14.8242H7.5V18.7598H6.20117V14.8242H2.26562V13.5156H6.20117V9.58008H7.5V13.5156H11.4453V14.8242ZM22.8125 6.16211V7.67578C22.0898 7.30469 21.3281 7.11914 20.5273 7.11914C19.2839 7.11914 18.2878 7.67253 17.5391 8.7793C16.7969 9.88607 16.4258 11.3672 16.4258 13.2227H16.4648C17.1159 11.901 18.1836 11.2402 19.668 11.2402C20.8919 11.2402 21.8652 11.6341 22.5879 12.4219C23.3105 13.2031 23.6719 14.2513 23.6719 15.5664C23.6719 16.9401 23.2585 18.0632 22.4316 18.9355C21.6048 19.8014 20.5534 20.2344 19.2773 20.2344C17.8711 20.2344 16.7676 19.6745 15.9668 18.5547C15.166 17.4349 14.7656 15.8626 14.7656 13.8379C14.7656 11.3835 15.2897 9.42383 16.3379 7.95898C17.3861 6.49414 18.7695 5.76172 20.4883 5.76172C21.4648 5.76172 22.2396 5.89518 22.8125 6.16211ZM19.3164 12.5977C18.4896 12.5977 17.819 12.8776 17.3047 13.4375C16.7904 13.9974 16.5332 14.6582 16.5332 15.4199C16.5332 16.377 16.7871 17.194 17.2949 17.8711C17.8092 18.5482 18.4896 18.8867 19.3359 18.8867C20.1432 18.8867 20.7943 18.5938 21.2891 18.0078C21.7839 17.4154 22.0312 16.6667 22.0312 15.7617C22.0312 14.7721 21.7936 13.9974 21.3184 13.4375C20.8431 12.8776 20.1758 12.5977 19.3164 12.5977Z" fill="white"/>
</svg>