<svg width="25" height="24" viewBox="0 0 25 24" fill="none" xmlns="http://www.w3.org/2000/svg">
<path d="M11.4453 14.8242H7.5V18.7598H6.20117V14.8242H2.26562V13.5156H6.20117V9.58008H7.5V13.5156H11.4453V14.8242ZM23.0664 20H14.6289V18.5742L18.7109 14.4824C19.7526 13.4408 20.4948 12.5749 20.9375 11.8848C21.3867 11.1882 21.6113 10.446 21.6113 9.6582C21.6113 8.85091 21.3802 8.22591 20.918 7.7832C20.4557 7.34049 19.7982 7.11914 18.9453 7.11914C17.6953 7.11914 16.4974 7.65299 15.3516 8.7207V7.04102C16.4453 6.18815 17.7181 5.76172 19.1699 5.76172C20.4199 5.76172 21.403 6.10026 22.1191 6.77734C22.8353 7.45443 23.1934 8.36263 23.1934 9.50195C23.1934 10.4004 22.946 11.2793 22.4512 12.1387C21.9564 12.9915 21.0677 14.0527 19.7852 15.3223L16.5527 18.5156V18.5547H23.0664V20Z" fill="white"/>
</svg>