<svg width="25" height="24" viewBox="0 0 25 24" fill="none" xmlns="http://www.w3.org/2000/svg">
<path d="M11.4453 14.8242H7.5V18.7598H6.20117V14.8242H2.26562V13.5156H6.20117V9.58008H7.5V13.5156H11.4453V14.8242ZM14.9707 19.4824V17.7539C15.9277 18.5091 17.0085 18.8867 18.2129 18.8867C19.1895 18.8867 19.9674 18.6426 20.5469 18.1543C21.1328 17.666 21.4258 17.0085 21.4258 16.1816C21.4258 14.3522 20.127 13.4375 17.5293 13.4375H16.3672V12.0801H17.4707C19.7819 12.0801 20.9375 11.2207 20.9375 9.50195C20.9375 7.91341 20.0553 7.11914 18.291 7.11914C17.3079 7.11914 16.3802 7.45443 15.5078 8.125V6.5625C16.4062 6.02865 17.4674 5.76172 18.6914 5.76172C19.8698 5.76172 20.8105 6.07422 21.5137 6.69922C22.2233 7.32422 22.5781 8.125 22.5781 9.10156C22.5781 10.944 21.6406 12.1289 19.7656 12.6562V12.6953C20.7747 12.793 21.5755 13.1478 22.168 13.7598C22.7669 14.3652 23.0664 15.1237 23.0664 16.0352C23.0664 17.2917 22.6139 18.3073 21.709 19.082C20.8105 19.8503 19.6224 20.2344 18.1445 20.2344C16.8164 20.2344 15.7585 19.9837 14.9707 19.4824Z" fill="white"/>
</svg>