<svg width="25" height="24" viewBox="0 0 25 24" fill="none" xmlns="http://www.w3.org/2000/svg">
<path d="M1.67969 19.7656V18.2227C2.46094 18.6654 3.28776 18.8867 4.16016 18.8867C5.42969 18.8867 6.41602 18.3757 7.11914 17.3535C7.82878 16.3314 8.18359 14.8796 8.18359 12.998C8.17057 13.0046 8.15755 13.0046 8.14453 12.998C7.54557 14.2025 6.50391 14.8047 5.01953 14.8047C3.82161 14.8047 2.83854 14.3978 2.07031 13.584C1.30208 12.7702 0.917969 11.722 0.917969 10.4395C0.917969 9.07227 1.33789 7.95247 2.17773 7.08008C3.02409 6.20117 4.10482 5.76172 5.41992 5.76172C6.80013 5.76172 7.87435 6.30859 8.64258 7.40234C9.41732 8.48958 9.80469 10.0749 9.80469 12.1582C9.80469 14.7428 9.30339 16.735 8.30078 18.1348C7.29818 19.5345 5.90495 20.2344 4.12109 20.2344C3.18359 20.2344 2.36979 20.0781 1.67969 19.7656ZM5.27344 7.11914C4.4987 7.11914 3.85091 7.41211 3.33008 7.99805C2.81576 8.57747 2.55859 9.31641 2.55859 10.2148C2.55859 11.1979 2.8125 11.9727 3.32031 12.5391C3.82812 13.099 4.51497 13.3789 5.38086 13.3789C6.13607 13.3789 6.77409 13.1217 7.29492 12.6074C7.82227 12.0931 8.08594 11.4648 8.08594 10.7227C8.08594 9.66146 7.82552 8.79557 7.30469 8.125C6.78385 7.45443 6.10677 7.11914 5.27344 7.11914ZM22.2266 14.8242H18.2812V18.7598H16.9824V14.8242H13.0469V13.5156H16.9824V9.58008H18.2812V13.5156H22.2266V14.8242Z" fill="white"/>
</svg>