<svg xmlns="http://www.w3.org/2000/svg" fill="currentColor" viewBox="0 0 20 20" width="20" height="20" aria-label="Icon" role="img"><rect width="20" height="20" fill="#FF4500"/><path fill-rule="evenodd" d="M9.155 3.025a.5.5 0 0 1 .338.557c-.481 2.887-.129 5.792.357 8.001.124-1.48.443-2.715.806-3.694.325-.879.685-1.549.966-2.003a8 8 0 0 1 .454-.657l.03-.038.01-.01.002-.004.002-.001.38.324-.38-.325a.5.5 0 0 1 .876.387c-.208 1.667-.056 3.345.187 4.72A11.091 11.091 0 0 1 14.7 6.756a8 8 0 0 1 .381-.532l.025-.03.007-.01.002-.002.001-.001.385.319-.385-.32a.501.501 0 0 1 .878.402c-.24 1.436.026 2.01.204 2.223.09.108.182.155.243.177a.4.4 0 0 0 .073.018H18.5a.5.5 0 0 1 0 1h-2v-.5.5h-.02a1 1 0 0 1-.116-.011 1.4 1.4 0 0 1-.257-.064 1.56 1.56 0 0 1-.679-.48c-.223-.268-.393-.633-.476-1.127q-.092.184-.184.387c-.538 1.196-1.007 2.851-.772 4.733a.5.5 0 0 1-.964.238l.468-.176-.468.176-.002-.005-.004-.01-.013-.038-.05-.141a21.664 21.664 0 0 1-.64-2.38 19.6 19.6 0 0 1-.422-3.612 11 11 0 0 0-.307.746c-.598 1.616-1.086 4.03-.6 7.188a.5.5 0 0 1-.955.268l.461-.192-.461.192-.001-.002-.002-.004-.006-.015-.022-.055q-.03-.072-.081-.209a21 21 0 0 1-.276-.78c-.223-.67-.51-1.624-.764-2.769-.336-1.51-.618-3.362-.623-5.337q-.115.31-.229.642c-.684 1.99-1.274 4.396-1.039 6.275a.5.5 0 0 1-.943.286L6.5 13.5l-.447.224v-.002l-.002-.003-.005-.01-.018-.037-.066-.139q-.086-.182-.227-.509a20 20 0 0 1-.649-1.747c-.277-.87-.538-1.913-.63-2.969a5.4 5.4 0 0 0-.466 1.29.5.5 0 0 1-.49.402h-2a.5.5 0 1 1 0-1h1.608c.2-.686.533-1.332.826-1.82a11 11 0 0 1 .658-.97l.012-.016.004-.004v-.002c.001 0 .002 0 .392.312l-.39-.312a.5.5 0 0 1 .883.394c-.23 1.38.115 3.036.546 4.391l.012.04c.19-1.449.609-2.925 1.039-4.176A34 34 0 0 1 8.517 3.35l.026-.054.007-.014.002-.004v-.001L9 3.5l-.447-.223a.5.5 0 0 1 .602-.252" clip-rule="evenodd" fill="black"/></svg>