<svg width="56" height="56" viewBox="0 0 56 56" fill="none" xmlns="http://www.w3.org/2000/svg">
<path d="M26.314 9.45815C27.0961 9.76933 27.5459 10.5933 27.3847 11.4194C25.4762 21.1975 25.1135 26.7413 25.9021 31.0849C26.3015 33.2849 27.0008 35.2161 28.0149 37.2861C27.8954 33.5008 28.0905 30.357 28.6069 27.5145C29.447 22.8899 31.1175 19.1773 33.4672 14.9072C33.8602 14.193 34.6943 13.8447 35.4784 14.0674C36.2626 14.2901 36.7892 15.0247 36.7482 15.8389C36.4873 21.0196 37.1089 25.5296 38.3597 29.7561C38.8267 24.8792 39.884 20.8236 42.9702 16.9873C43.409 16.4418 44.1306 16.2103 44.8048 16.3988C45.479 16.5872 45.9761 17.1593 46.0684 17.8533C46.4339 20.5986 46.7387 22.1727 47.2771 23.3761C47.7242 24.3751 48.3754 25.2072 49.6213 26.2508H51.9171C52.8836 26.2508 53.6671 27.0343 53.6671 28.0008C53.6671 28.9673 52.8836 29.7508 51.9171 29.7508H49.0004C48.6068 29.7508 48.2246 29.6181 47.9157 29.3742C46.1117 27.9493 44.8954 26.6226 44.0824 24.8056C43.823 24.2258 43.6112 23.6091 43.4308 22.9437C41.8751 26.6242 41.6995 30.9687 41.4372 37.4545C41.4301 37.6309 41.4229 37.8089 41.4156 37.9885C41.383 38.7925 40.8063 39.4706 40.0179 39.632C39.2296 39.7933 38.4328 39.3963 38.087 38.6697C35.7717 33.8062 34.0788 28.7887 33.4537 23.0666C32.8422 24.6988 32.3764 26.3465 32.0505 28.1401C31.302 32.2602 31.2724 37.2639 32.0737 44.7308C32.1614 45.5471 31.6697 46.3146 30.8915 46.5763C30.1133 46.8379 29.2578 46.5234 28.8344 45.82L28.8026 45.7671C25.6691 40.5612 23.3727 36.7461 22.4584 31.7101C21.8349 28.2759 21.8626 24.3451 22.5551 19.0615C22.0054 19.9975 21.4935 20.9674 21.018 22.0398C19.4584 25.5573 18.3351 30.1592 18.0828 37.974C18.0565 38.7887 17.4712 39.4774 16.6714 39.6346C15.8715 39.7919 15.069 39.3761 14.7362 38.632C13.0952 34.9628 11.9027 32.225 11.1237 29.1983C10.6624 27.4058 10.3517 25.5373 10.1592 23.3319C10.1453 23.3609 10.1316 23.3898 10.118 23.4189C9.52975 24.6736 9.14627 26.0796 8.71972 28.3271C8.56297 29.1531 7.84108 29.7508 7.00041 29.7508H4.08374C3.11724 29.7508 2.33374 28.9673 2.33374 28.0008C2.33374 27.0343 3.11724 26.2508 4.08374 26.2508H5.56949C5.93104 24.595 6.33846 23.2354 6.94896 21.9332C7.72651 20.2747 8.78826 18.8054 10.3226 16.9639C10.7911 16.4017 11.5601 16.1903 12.2501 16.4342C12.9402 16.678 13.4056 17.3256 13.4169 18.0574C13.4878 22.6858 13.8244 25.6496 14.5132 28.3259C14.7016 29.0578 14.9175 29.7735 15.1652 30.5019C15.7266 26.3849 16.6391 23.2809 17.8184 20.6212C19.0665 17.8062 20.6403 15.4719 22.2549 13.0771C22.899 12.1218 23.5496 11.1568 24.1886 10.1478C24.639 9.43671 25.5319 9.14697 26.314 9.45815Z" fill="white"/>
</svg>