<svg width="200" height="100" viewBox="0 0 200 100" fill="none" xmlns="http://www.w3.org/2000/svg">
<def>
<mask id="path-1-inside-1_88_12418" fill="white">
<path d="M0 16C0 7.16345 7.16344 0 16 0H184C192.837 0 200 7.16344 200 16V84C200 92.8366 192.837 100 184 100H16C7.16344 100 0 92.8366 0 84V16Z"/>
</mask>
<linearGradient id="paint0_linear_88_12418" x1="200" y1="50" x2="-9.31323e-07" y2="50" gradientUnits="userSpaceOnUse">
<stop stop-opacity="0"/>
<stop offset="1"/>
</linearGradient>
</def>
<path d="M0 16C0 7.16345 7.16344 0 16 0H184C192.837 0 200 7.16344 200 16V84C200 92.8366 192.837 100 184 100H16C7.16344 100 0 92.8366 0 84V16Z" fill="#383838"/>
<path d="M0 16C0 7.16345 7.16344 0 16 0H184C192.837 0 200 7.16344 200 16V84C200 92.8366 192.837 100 184 100H16C7.16344 100 0 92.8366 0 84V16Z" fill="url(#paint0_linear_88_12418)" fill-opacity="0.2"/>
<path d="M-2 16C-2 6.05887 6.05887 -2 16 -2H182C191.941 -2 200 6.05887 200 16C200 8.26801 192.837 2 184 2H16C8.26801 2 2 8.26801 2 16H-2ZM200 100H0H200ZM16 100C6.05887 100 -2 91.9411 -2 82V16C-2 6.05887 6.05887 -2 16 -2V2C8.26801 2 2 8.26801 2 16V84C2 92.8366 8.26801 100 16 100ZM200 0V100V0Z" fill="#505050" mask="url(#path-1-inside-1_88_12418)"/>
</svg>