<svg width="116" height="39" viewBox="0 0 116 39" fill="none" xmlns="http://www.w3.org/2000/svg">
<path d="M0.842789 33C1.11892 32.522 1.72985 32.358 2.20802 32.6338L5.66798 34.6309L5.67287 34.6338L8.34865 36.1787L9.13673 36.6338C9.61494 36.9099 9.77895 37.5217 9.50294 38C9.22684 38.4782 8.615 38.6422 8.13673 38.3662L1.20802 34.3662C0.729875 34.09 0.566687 33.4782 0.842789 33ZM113.792 32.6338C114.27 32.358 114.881 32.522 115.157 33C115.433 33.4782 115.27 34.09 114.792 34.3662L107.863 38.3662C107.385 38.6422 106.773 38.4782 106.497 38C106.221 37.5217 106.385 36.9099 106.863 36.6338L110.327 34.6338L110.331 34.6309L113.792 32.6338ZM14.1592 22.1592C14.5496 21.7687 15.1827 21.7689 15.5733 22.1592L18.4024 24.9883C18.7925 25.3788 18.7928 26.012 18.4024 26.4023C18.012 26.7927 17.3788 26.7925 16.9883 26.4023L14.1592 23.5732C13.769 23.1827 13.7688 22.5496 14.1592 22.1592ZM100.427 22.1592C100.817 21.7689 101.45 21.7688 101.841 22.1592C102.231 22.5496 102.231 23.1827 101.841 23.5732L99.0117 26.4023C98.6212 26.7925 97.9881 26.7927 97.5977 26.4023C97.2073 26.012 97.2076 25.3788 97.5977 24.9883L100.427 22.1592ZM25 8.84277C25.4782 8.56667 26.09 8.72986 26.3662 9.20801L30.3662 16.1367C30.6422 16.615 30.4782 17.2268 30 17.5029C29.5218 17.7789 28.9099 17.6149 28.6338 17.1367L28.2735 16.5127L26.6338 13.6729L26.6309 13.668L24.6338 10.208C24.358 9.72984 24.522 9.11891 25 8.84277ZM89.6338 9.20801C89.91 8.72985 90.5218 8.56667 91 8.84277C91.4781 9.1189 91.6421 9.72983 91.3662 10.208L89.3682 13.668L89.3662 13.6729L87.3662 17.1367C87.0901 17.6149 86.4783 17.7789 86 17.5029C85.5218 17.2268 85.3578 16.615 85.6338 16.1367L89.6338 9.20801ZM41.9531 6.1123C42.4865 5.9694 43.0346 6.28612 43.1777 6.81934L44.2129 10.6836C44.3558 11.217 44.0393 11.7653 43.5059 11.9082C42.9725 12.0509 42.4242 11.7345 42.2813 11.2012L41.2461 7.33691C41.1034 6.80359 41.4198 6.25522 41.9531 6.1123ZM72.8223 6.81934C72.9654 6.28612 73.5136 5.9694 74.0469 6.1123C74.5802 6.25522 74.8966 6.80358 74.7539 7.33691L73.7188 11.2012C73.5758 11.7345 73.0275 12.051 72.4942 11.9082C71.9607 11.7653 71.6442 11.217 71.7871 10.6836L72.8223 6.81934ZM58 0C58.5523 0 59 0.447718 59 1V9C59 9.55229 58.5523 10 58 10C57.4477 10 57 9.55228 57 9V1C57 0.447721 57.4477 4.12319e-06 58 0Z" fill="#8E8E8E"/>
</svg>
