<svg width="56" height="56" viewBox="0 0 56 56" fill="none" xmlns="http://www.w3.org/2000/svg">
<path d="M27.6794 8.16669C19.0061 8.16669 12.7069 16.4138 14.989 24.7815L15.1049 25.2062C15.3592 26.1387 14.8094 27.1007 13.877 27.355C12.9445 27.6093 11.9825 27.0596 11.7282 26.1271L11.6124 25.7024C8.72304 15.1083 16.6983 4.66669 27.6794 4.66669C36.877 4.66669 44.3332 12.1229 44.3332 21.3205V22.3243C44.3332 27.173 42.3394 31.8083 38.8195 35.1429L34.7309 39.0163C33.6561 40.0345 32.9028 41.345 32.5637 42.7861L32.4643 43.2082C31.3442 47.9688 27.0961 51.3333 22.2055 51.3333C16.385 51.3333 11.6665 46.6149 11.6665 40.7944V39.6667C11.6665 38.7002 12.45 37.9167 13.4165 37.9167C14.383 37.9167 15.1665 38.7002 15.1665 39.6667V40.7944C15.1665 44.6819 18.318 47.8333 22.2055 47.8333C25.472 47.8333 28.3092 45.5862 29.0574 42.4066L29.1567 41.9845C29.6522 39.8785 30.7532 37.9634 32.3238 36.4755L36.4124 32.6021C39.2346 29.9284 40.8332 26.2119 40.8332 22.3243V21.3205C40.8332 14.0559 34.944 8.16669 27.6794 8.16669Z" fill="white"/>
<path d="M23.2563 27.1586C16.8412 22.7173 20.2462 12.8334 27.8578 12.8334C32.4086 12.8334 36.1665 16.5197 36.1665 21.0999V22.1667C36.1665 23.1332 35.383 23.9167 34.4165 23.9167C33.45 23.9167 32.6665 23.1332 32.6665 22.1667V21.0999C32.6665 18.4821 30.505 16.3334 27.8578 16.3334C23.4863 16.3334 21.8112 21.9012 25.2485 24.2809C31.0223 28.2781 28.1937 37.3334 21.1712 37.3334H19.8332C18.8667 37.3334 18.0832 36.5498 18.0832 35.5833C18.0832 34.6169 18.8667 33.8333 19.8332 33.8333H21.1712C24.7624 33.8333 26.2089 29.2027 23.2563 27.1586Z" fill="white"/>
</svg>