<svg width="144" height="144" viewBox="0 0 144 144" fill="none" xmlns="http://www.w3.org/2000/svg">
<mask id="path-1-inside-1_668_3764" fill="white">
<path d="M0 16C0 7.16344 7.16344 0 16 0H128C136.837 0 144 7.16344 144 16V128C144 136.837 136.837 144 128 144H16C7.16344 144 0 136.837 0 128V16Z"/>
</mask>
<path d="M0 16C0 7.16344 7.16344 0 16 0H128C136.837 0 144 7.16344 144 16V128C144 136.837 136.837 144 128 144H16C7.16344 144 0 136.837 0 128V16Z" fill="#383838"/>
<path d="M0 16C0 7.16344 7.16344 0 16 0H128C136.837 0 144 7.16344 144 16V128C144 136.837 136.837 144 128 144H16C7.16344 144 0 136.837 0 128V16Z" fill="url(#paint0_linear_668_3764)" fill-opacity="0.2"/>
<path d="M0 16C0 6.05887 8.05887 -2 18 -2H128C137.941 -2 146 6.05887 146 16H142C142 8.26801 135.732 2 128 2H16C7.16344 2 0 8.26801 0 16ZM146 128C146 137.941 137.941 146 128 146H18C8.05887 146 0 137.941 0 128C0 135.732 7.16344 142 16 142H128C135.732 142 142 135.732 142 128H146ZM0 144V0V144ZM128 -2C137.941 -2 146 6.05887 146 16V128C146 137.941 137.941 146 128 146V142C135.732 142 142 135.732 142 128V16C142 8.26801 135.732 2 128 2V-2Z" fill="#505050" mask="url(#path-1-inside-1_668_3764)"/>
<defs>
<linearGradient id="paint0_linear_668_3764" x1="144" y1="72" x2="-6.70552e-07" y2="72" gradientUnits="userSpaceOnUse">
<stop stop-opacity="0"/>
<stop offset="1"/>
</linearGradient>
</defs>
</svg>