<svg width="144" height="144" viewBox="0 0 144 144" fill="none" xmlns="http://www.w3.org/2000/svg">
<mask id="path-1-inside-1_668_3805" fill="white">
<path d="M0 16C0 7.16344 7.16344 0 16 0H128C136.837 0 144 7.16344 144 16V128C144 136.837 136.837 144 128 144H16C7.16344 144 0 136.837 0 128V16Z"/>
</mask>
<path d="M0 16C0 7.16344 7.16344 0 16 0H128C136.837 0 144 7.16344 144 16V128C144 136.837 136.837 144 128 144H16C7.16344 144 0 136.837 0 128V16Z" fill="#383838"/>
<path d="M0 16C0 7.16344 7.16344 0 16 0H128C136.837 0 144 7.16344 144 16V128C144 136.837 136.837 144 128 144H16C7.16344 144 0 136.837 0 128V16Z" fill="url(#paint0_linear_668_3805)" fill-opacity="0.2"/>
<path d="M-2 16C-2 6.05887 6.05887 -2 16 -2H126C135.941 -2 144 6.05887 144 16C144 8.26801 136.837 2 128 2H16C8.26801 2 2 8.26801 2 16H-2ZM144 128C144 137.941 135.941 146 126 146H16C6.05887 146 -2 137.941 -2 128H2C2 135.732 8.26801 142 16 142H128C136.837 142 144 135.732 144 128ZM16 146C6.05887 146 -2 137.941 -2 128V16C-2 6.05887 6.05887 -2 16 -2V2C8.26801 2 2 8.26801 2 16V128C2 135.732 8.26801 142 16 142V146ZM144 0V144V0Z" fill="#505050" mask="url(#path-1-inside-1_668_3805)"/>
<defs>
<linearGradient id="paint0_linear_668_3805" x1="144" y1="72" x2="-6.70552e-07" y2="72" gradientUnits="userSpaceOnUse">
<stop stop-opacity="0"/>
<stop offset="1"/>
</linearGradient>
</defs>
</svg>