<svg width="24" height="48" viewBox="0 0 24 48" fill="none" xmlns="http://www.w3.org/2000/svg">
<path d="M2 48C0.89543 48 1.17422e-07 47.1046 2.62268e-07 46L6.03217e-06 2C6.17702e-06 0.895428 0.895437 -3.69728e-06 2.00001 -3.55243e-06L22 -9.29746e-07C23.1046 -7.84899e-07 24 0.895431 24 2L24 46C24 47.1046 23.1046 48 22 48L2 48Z" fill="url(#paint0_linear_658_5494)"/>
<rect x="6" y="44" width="40" height="12" transform="rotate(-90 6 44)" fill="#F6F6F6"/>
<path d="M24 2L18 4L6.00001 4L5.99183e-06 1.5C2.26653e-06 0.671571 0.671574 -3.01067e-06 1.5 -2.69785e-06L2 -2.79684e-06L22 -8.08632e-08C23.1046 1.77284e-07 24 0.895431 24 2Z" fill="#9E9E9E"/>
<path d="M22 48L2 48C0.895432 48 9.6629e-08 47.1046 2.15826e-07 46L6 44L18 44L24 46C24 47.1046 23.1046 48 22 48Z" fill="#9E9E9E"/>
<rect x="11" y="40" width="32" height="2" rx="0.999998" transform="rotate(-90 11 40)" fill="#434343"/>
<rect x="11" y="40" width="32" height="2" rx="0.999998" transform="rotate(-90 11 40)" fill="url(#paint1_radial_658_5494)" fill-opacity="0.04"/>
<defs>
<linearGradient id="paint0_linear_658_5494" x1="24" y1="24" x2="3.14722e-06" y2="24" gradientUnits="userSpaceOnUse">
<stop stop-color="#C8C8C8"/>
<stop offset="1" stop-color="#DBDBDB"/>
</linearGradient>
<radialGradient id="paint1_radial_658_5494" cx="0" cy="0" r="1" gradientUnits="userSpaceOnUse" gradientTransform="translate(27 41) rotate(90) scale(0.999998 16)">
<stop stop-opacity="0"/>
<stop offset="1" stop-color="white"/>
</radialGradient>
</defs>
</svg>