<svg width="240" height="12" viewBox="0 0 240 12" fill="none" xmlns="http://www.w3.org/2000/svg">
<g mask="url(#level)">
<path d="M9.07715 0C10.1816 0.000120386 11.0771 0.895505 11.0771 2L11.0771 10C11.0771 11.1045 10.1816 11.9999 9.07715 12L2 12C0.895431 12 3.22133e-08 11.1046 0 10L0 2C1.28853e-07 0.895431 0.895431 8.81044e-09 2 0L9.07715 0ZM28.1543 0C29.2587 0.000244052 30.1543 0.895581 30.1543 2L30.1543 10C30.1543 11.1044 29.2587 11.9998 28.1543 12L21.0771 12C19.9726 12 19.0771 11.1046 19.0771 10L19.0771 2C19.0771 0.895431 19.9726 0 21.0771 0L28.1543 0ZM47.2305 0C48.335 0 49.2305 0.895431 49.2305 2L49.2305 10C49.2305 11.1046 48.335 12 47.2305 12L40.1543 12C39.0497 12 38.1543 11.1046 38.1543 10L38.1543 2C38.1543 0.895431 39.0497 0 40.1543 0L47.2305 0ZM66.3076 0C67.4122 0 68.3076 0.895431 68.3076 2L68.3076 10C68.3076 11.1046 67.4122 12 66.3076 12L59.2305 12C58.126 11.9998 57.2305 11.1045 57.2305 10L57.2305 2C57.2305 0.895532 58.126 0.000164924 59.2305 0L66.3076 0ZM85.3848 0C86.4893 8.74043e-05 87.3848 0.895484 87.3848 2L87.3848 10C87.3848 11.1045 86.4893 11.9999 85.3848 12L78.3076 12C77.2031 12 76.3076 11.1045 76.3076 10L76.3076 2C76.3076 0.895451 77.2031 3.29939e-05 78.3076 0L85.3848 0ZM104.462 0C105.566 0.000202832 106.462 0.895556 106.462 2L106.462 10C106.462 11.1044 105.566 11.9998 104.462 12L97.3848 12C96.2802 12 95.3848 11.1046 95.3848 10L95.3848 2C95.3848 0.895431 96.2802 0 97.3848 0L104.462 0ZM123.538 0C124.643 0 125.538 0.895431 125.538 2L125.538 10C125.538 11.1046 124.643 12 123.538 12L116.462 12C115.357 12 114.462 11.1046 114.462 10L114.462 2C114.462 0.895431 115.357 0 116.462 0L123.538 0ZM142.615 0C143.72 0 144.615 0.895431 144.615 2L144.615 10C144.615 11.1046 143.72 12 142.615 12L135.538 12C134.434 11.9998 133.538 11.1044 133.538 10L133.538 2C133.538 0.895553 134.434 0.000197898 135.538 0L142.615 0ZM161.692 0C162.797 5.44216e-05 163.692 0.895464 163.692 2L163.692 10C163.692 11.1045 162.797 11.9999 161.692 12L154.615 12C153.511 11.9999 152.615 11.1045 152.615 10L152.615 2C152.615 0.895471 153.511 6.59776e-05 154.615 0L161.692 0ZM180.77 0C181.874 0.000169855 182.77 0.895535 182.77 2L182.77 10C182.77 11.1045 181.874 11.9998 180.77 12L173.692 12C172.588 12 171.692 11.1046 171.692 10L171.692 2C171.692 0.895431 172.588 0 173.692 0L180.77 0ZM199.846 0C200.95 0 201.846 0.895431 201.846 2L201.846 10C201.846 11.1046 200.95 12 199.846 12L192.77 12C191.665 12 190.77 11.1046 190.77 10L190.77 2C190.77 0.895431 191.665 0 192.77 0L199.846 0ZM218.923 0C220.027 0 220.923 0.895431 220.923 2L220.923 10C220.923 11.1046 220.027 12 218.923 12L211.846 12C210.741 11.9998 209.846 11.1044 209.846 10L209.846 2C209.846 0.895573 210.741 0.000230874 211.846 0L218.923 0ZM238 0C239.105 2.14374e-05 240 0.895444 240 2L240 10C240 11.1046 239.105 12 238 12L230.923 12C229.818 11.9999 228.923 11.1045 228.923 10L228.923 2C228.923 0.895492 229.818 9.89598e-05 230.923 0L238 0Z" fill="#171717"/>
<path d="M0 2C0 0.895431 0.895431 0 2 0L9.07693 0C10.1815 0 11.0769 0.895431 11.0769 2L11.0769 10C11.0769 11.1046 10.1815 12 9.07692 12L2 12C0.895428 12 0 11.1046 0 10L0 2Z" fill="url(#paint0_linear_314_45872)"/>
<path d="M19.0769 2C19.0769 0.895431 19.9723 0 21.0769 0L28.1538 0C29.2584 0 30.1538 0.895431 30.1538 2L30.1538 10C30.1538 11.1046 29.2584 12 28.1538 12L21.0769 12C19.9723 12 19.0769 11.1046 19.0769 10L19.0769 2Z" fill="url(#paint1_linear_314_45872)"/>
<path d="M38.1538 2C38.1538 0.895431 39.0492 0 40.1538 0L47.2307 0C48.3353 0 49.2307 0.895431 49.2307 2L49.2307 10C49.2307 11.1046 48.3353 12 47.2307 12L40.1538 12C39.0492 12 38.1538 11.1046 38.1538 10L38.1538 2Z" fill="url(#paint2_linear_314_45872)"/>
<path d="M57.2307 2C57.2307 0.895431 58.1261 0 59.2307 0L66.3076 0C67.4122 0 68.3076 0.895431 68.3076 2L68.3076 10C68.3076 11.1046 67.4122 12 66.3076 12L59.2307 12C58.1261 12 57.2307 11.1046 57.2307 10L57.2307 2Z" fill="url(#paint3_linear_314_45872)"/>
<path d="M76.3077 2C76.3077 0.895431 77.2032 0 78.3077 0L85.3847 0C86.4892 0 87.3847 0.895431 87.3847 2L87.3847 10C87.3847 11.1046 86.4892 12 85.3847 12L78.3077 12C77.2032 12 76.3077 11.1046 76.3077 10L76.3077 2Z" fill="url(#paint4_linear_314_45872)"/>
<path d="M95.3846 2C95.3846 0.895431 96.2801 0 97.3846 0L104.462 0C105.566 0 106.462 0.895431 106.462 2L106.462 10C106.462 11.1046 105.566 12 104.462 12L97.3846 12C96.2801 12 95.3846 11.1046 95.3846 10L95.3846 2Z" fill="url(#paint5_linear_314_45872)"/>
<path d="M114.462 2C114.462 0.895431 115.357 0 116.462 0L123.538 0C124.643 0 125.538 0.895431 125.538 2L125.538 10C125.538 11.1046 124.643 12 123.538 12L116.462 12C115.357 12 114.462 11.1046 114.462 10L114.462 2Z" fill="url(#paint6_linear_314_45872)"/>
<path d="M133.538 2C133.538 0.895431 134.434 0 135.538 0L142.615 0C143.72 0 144.615 0.895431 144.615 2L144.615 10C144.615 11.1046 143.72 12 142.615 12L135.538 12C134.434 12 133.538 11.1046 133.538 10L133.538 2Z" fill="url(#paint7_linear_314_45872)"/>
<path d="M152.615 2C152.615 0.895431 153.511 0 154.615 0L161.692 0C162.797 0 163.692 0.895431 163.692 2L163.692 10C163.692 11.1046 162.797 12 161.692 12L154.615 12C153.511 12 152.615 11.1046 152.615 10L152.615 2Z" fill="url(#paint8_linear_314_45872)"/>
<path d="M171.692 2C171.692 0.895431 172.588 0 173.692 0L180.769 0C181.874 0 182.769 0.895431 182.769 2L182.769 10C182.769 11.1046 181.874 12 180.769 12L173.692 12C172.588 12 171.692 11.1046 171.692 10L171.692 2Z" fill="url(#paint9_linear_314_45872)"/>
<path d="M190.769 2C190.769 0.895431 191.665 0 192.769 0L199.846 0C200.951 0 201.846 0.895431 201.846 2L201.846 10C201.846 11.1046 200.951 12 199.846 12L192.769 12C191.665 12 190.769 11.1046 190.769 10L190.769 2Z" fill="url(#paint10_linear_314_45872)"/>
<path d="M209.846 2C209.846 0.895431 210.742 0 211.846 0L218.923 0C220.028 0 220.923 0.895431 220.923 2L220.923 10C220.923 11.1046 220.028 12 218.923 12L211.846 12C210.742 12 209.846 11.1046 209.846 10L209.846 2Z" fill="url(#paint11_linear_314_45872)"/>
<path d="M228.923 2C228.923 0.895431 229.819 0 230.923 0L238 0C239.105 0 240 0.895431 240 2L240 10C240 11.1046 239.105 12 238 12L230.923 12C229.819 12 228.923 11.1046 228.923 10L228.923 2Z" fill="url(#paint12_linear_314_45872)"/>
</g>
<defs>
<linearGradient id="paint0_linear_314_45872" x1="5.53846" y1="0" x2="5.53846" y2="12" gradientUnits="userSpaceOnUse">
<stop stop-color="#3BB455"/>
<stop offset="1" stop-color="#3BB455"/>
</linearGradient>
<linearGradient id="paint1_linear_314_45872" x1="24.6154" y1="0" x2="24.6154" y2="12" gradientUnits="userSpaceOnUse">
<stop stop-color="#3BB455"/>
<stop offset="1" stop-color="#3BB455"/>
</linearGradient>
<linearGradient id="paint2_linear_314_45872" x1="43.6923" y1="0" x2="43.6923" y2="12" gradientUnits="userSpaceOnUse">
<stop stop-color="#3BB455"/>
<stop offset="1" stop-color="#3BB455"/>
</linearGradient>
<linearGradient id="paint3_linear_314_45872" x1="62.7692" y1="0" x2="62.7692" y2="12" gradientUnits="userSpaceOnUse">
<stop stop-color="#3BB455"/>
<stop offset="1" stop-color="#3BB455"/>
</linearGradient>
<linearGradient id="paint4_linear_314_45872" x1="81.8462" y1="0" x2="81.8462" y2="12" gradientUnits="userSpaceOnUse">
<stop stop-color="#3BB455"/>
<stop offset="1" stop-color="#3BB455"/>
</linearGradient>
<linearGradient id="paint5_linear_314_45872" x1="100.923" y1="0" x2="100.923" y2="12" gradientUnits="userSpaceOnUse">
<stop stop-color="#3BB455"/>
<stop offset="1" stop-color="#3BB455"/>
</linearGradient>
<linearGradient id="paint6_linear_314_45872" x1="120" y1="0" x2="120" y2="12" gradientUnits="userSpaceOnUse">
<stop stop-color="#3BB455"/>
<stop offset="1" stop-color="#3BB455"/>
</linearGradient>
<linearGradient id="paint7_linear_314_45872" x1="139.077" y1="0" x2="139.077" y2="12" gradientUnits="userSpaceOnUse">
<stop stop-color="#3FB454"/>
<stop offset="1" stop-color="#3BB455"/>
</linearGradient>
<linearGradient id="paint8_linear_314_45872" x1="158.154" y1="0" x2="158.154" y2="12" gradientUnits="userSpaceOnUse">
<stop stop-color="#8BC432"/>
<stop offset="1" stop-color="#5CBA47"/>
</linearGradient>
<linearGradient id="paint9_linear_314_45872" x1="177.231" y1="0" x2="177.231" y2="12" gradientUnits="userSpaceOnUse">
<stop stop-color="#D6D311"/>
<stop offset="1" stop-color="#A8CA25"/>
</linearGradient>
<linearGradient id="paint10_linear_314_45872" x1="196.308" y1="0" x2="196.308" y2="12" gradientUnits="userSpaceOnUse">
<stop stop-color="#FCBA11"/>
<stop offset="1" stop-color="#F4D903"/>
</linearGradient>
<linearGradient id="paint11_linear_314_45872" x1="215.385" y1="0" x2="215.385" y2="12" gradientUnits="userSpaceOnUse">
<stop stop-color="#FD7B30"/>
<stop offset="1" stop-color="#FCA31C"/>
</linearGradient>
<linearGradient id="paint12_linear_314_45872" x1="234.462" y1="0" x2="234.462" y2="12" gradientUnits="userSpaceOnUse">
<stop stop-color="#FF3C4E"/>
<stop offset="1" stop-color="#FE623C"/>
</linearGradient>
</defs>
</svg>