<svg width="144" height="144" viewBox="0 0 144 144" fill="none" xmlns="http://www.w3.org/2000/svg">
<mask id="path-1-inside-1_58_4620" fill="white">
<path d="M0 16C0 7.16344 7.16344 0 16 0H128C136.837 0 144 7.16344 144 16V128C144 136.837 136.837 144 128 144H16C7.16344 144 0 136.837 0 128V16Z"/>
</mask>
<path d="M0 16C0 7.16344 7.16344 0 16 0H128C136.837 0 144 7.16344 144 16V128C144 136.837 136.837 144 128 144H16C7.16344 144 0 136.837 0 128V16Z" fill="#383838"/>
<path d="M0 16C0 7.16344 7.16344 0 16 0H128C136.837 0 144 7.16344 144 16V128C144 136.837 136.837 144 128 144H16C7.16344 144 0 136.837 0 128V16Z" fill="url(#paint0_linear_58_4620)" fill-opacity="0.2"/>
<path d="M0 0H144H0ZM146 128C146 137.941 137.941 146 128 146H16C6.05887 146 -2 137.941 -2 128H2C2 135.732 8.26801 142 16 142H128C135.732 142 142 135.732 142 128H146ZM16 146C6.05887 146 -2 137.941 -2 128V18C-2 8.05887 6.05887 0 16 0C8.26801 0 2 7.16344 2 16V128C2 135.732 8.26801 142 16 142V146ZM128 0C137.941 0 146 8.05887 146 18V128C146 137.941 137.941 146 128 146V142C135.732 142 142 135.732 142 128V16C142 7.16344 135.732 0 128 0Z" fill="#505050" mask="url(#path-1-inside-1_58_4620)"/>
<defs>
<linearGradient id="paint0_linear_58_4620" x1="144" y1="72" x2="-6.70552e-07" y2="72" gradientUnits="userSpaceOnUse">
<stop stop-opacity="0"/>
<stop offset="1"/>
</linearGradient>
</defs>
</svg>