<svg width="144" height="144" viewBox="0 0 144 144" fill="none" xmlns="http://www.w3.org/2000/svg">
<mask id="path-1-inside-1_58_4547" fill="white">
<path d="M0 16C0 7.16344 7.16344 0 16 0H128C136.837 0 144 7.16344 144 16V128C144 136.837 136.837 144 128 144H16C7.16344 144 0 136.837 0 128V16Z"/>
</mask>
<path d="M0 16C0 7.16344 7.16344 0 16 0H128C136.837 0 144 7.16344 144 16V128C144 136.837 136.837 144 128 144H16C7.16344 144 0 136.837 0 128V16Z" fill="#383838"/>
<path d="M0 16C0 7.16344 7.16344 0 16 0H128C136.837 0 144 7.16344 144 16V128C144 136.837 136.837 144 128 144H16C7.16344 144 0 136.837 0 128V16Z" fill="url(#paint0_linear_58_4547)" fill-opacity="0.2"/>
<path d="M-2 16C-2 6.05887 6.05887 -2 16 -2H128C137.941 -2 146 6.05887 146 16H142C142 8.26801 135.732 2 128 2H16C8.26801 2 2 8.26801 2 16H-2ZM144 144H0H144ZM16 144C6.05887 144 -2 135.941 -2 126V16C-2 6.05887 6.05887 -2 16 -2V2C8.26801 2 2 8.26801 2 16V128C2 136.837 8.26801 144 16 144ZM128 -2C137.941 -2 146 6.05887 146 16V126C146 135.941 137.941 144 128 144C135.732 144 142 136.837 142 128V16C142 8.26801 135.732 2 128 2V-2Z" fill="#505050" mask="url(#path-1-inside-1_58_4547)"/>
<defs>
<linearGradient id="paint0_linear_58_4547" x1="144" y1="72" x2="-6.70552e-07" y2="72" gradientUnits="userSpaceOnUse">
<stop stop-opacity="0"/>
<stop offset="1"/>
</linearGradient>
</defs>
</svg>