<svg width="20" height="200" viewBox="0 0 20 200" fill="none" xmlns="http://www.w3.org/2000/svg">
<path d="M18 190.154C19.1046 190.154 20 191.05 20 192.154V198C20 199.105 19.1046 200 18 200H2C0.895431 200 0 199.105 0 198V192.154C0 191.05 0.895431 190.154 2 190.154H18ZM18 174.308C19.1045 174.308 19.9999 175.203 20 176.308V182.154C19.9998 183.259 19.1044 184.154 18 184.154H2C0.895565 184.154 0.000217535 183.259 0 182.154V176.308C6.54796e-05 175.203 0.895471 174.308 2 174.308H18ZM18 158.462C19.1046 158.462 20 159.357 20 160.462V166.308C20 167.412 19.1046 168.308 18 168.308H2C0.895431 168.308 0 167.412 0 166.308V160.462C0 159.357 0.895431 158.462 2 158.462H18ZM18 142.615C19.1045 142.615 19.9999 143.511 20 144.615V150.462C19.9998 151.566 19.1044 152.462 18 152.462H2C0.895565 152.462 0.000216886 151.566 0 150.462V144.615C6.55843e-05 143.511 0.895471 142.615 2 142.615H18ZM18 126.77C19.1046 126.77 20 127.665 20 128.77V134.615C20 135.72 19.1046 136.615 18 136.615H2C0.895431 136.615 0 135.72 0 134.615V128.77C0 127.665 0.895431 126.77 2 126.77H18ZM18 110.923C19.1045 110.923 19.9999 111.818 20 112.923V118.77C19.9998 119.874 19.1045 120.77 18 120.77H2C0.895524 120.77 0.000150931 119.874 0 118.77V112.923C0.000131547 111.818 0.895512 110.923 2 110.923H18ZM18 95.0771C19.1046 95.0771 20 95.9726 20 97.0771V102.923C20 104.027 19.1046 104.923 18 104.923H2C0.895431 104.923 0 104.027 0 102.923V97.0771C0 95.9726 0.895431 95.0771 2 95.0771H18ZM18 79.2305C19.1045 79.2305 19.9998 80.126 20 81.2305V87.0771C19.9999 88.1816 19.1045 89.0771 18 89.0771H2C0.895504 89.0771 0.000117951 88.1816 0 87.0771V81.2305C0.000164527 80.126 0.895532 79.2305 2 79.2305H18ZM18 63.3848C19.1046 63.3848 20 64.2802 20 65.3848V71.2305C20 72.335 19.1046 73.2305 18 73.2305H2C0.895431 73.2305 0 72.335 0 71.2305V65.3848C0 64.2802 0.895431 63.3848 2 63.3848H18ZM18 47.5381C19.1044 47.5381 19.9998 48.4337 20 49.5381V55.3848C19.9999 56.4893 19.1045 57.3848 18 57.3848H2C0.895484 57.3848 8.56181e-05 56.4893 0 55.3848V49.5381C0.0001974 48.4337 0.895552 47.5381 2 47.5381H18ZM18 31.6924C19.1046 31.6924 20 32.5878 20 33.6924V39.5381C20 40.6427 19.1046 41.5381 18 41.5381H2C0.895431 41.5381 0 40.6427 0 39.5381V33.6924C0 32.5878 0.895431 31.6924 2 31.6924H18ZM18 15.8457C19.1044 15.8457 19.9998 16.7413 20 17.8457V23.6924C19.9999 24.7969 19.1045 25.6924 18 25.6924H2C0.895463 25.6924 5.26351e-05 24.7969 0 23.6924V17.8457C0.000230376 16.7413 0.895573 15.8457 2 15.8457H18ZM18 0C19.1046 2.57702e-07 20 0.895431 20 2V7.8457C20 8.95027 19.1046 9.8457 18 9.8457H2C0.895431 9.8457 0 8.95027 0 7.8457V2C0 0.895431 0.895431 1.61064e-08 2 0H18Z" fill="#171717"/>
<path d="M0 2C0 0.89543 0.895431 0 2 0H18C19.1046 0 20 0.895431 20 2V7.84616C20 8.95073 19.1046 9.84616 18 9.84616H2C0.895431 9.84616 0 8.95072 0 7.84616V2Z" fill="black"/>
<path d="M0 17.8461C0 16.7416 0.895431 15.8461 2 15.8461H18C19.1046 15.8461 20 16.7416 20 17.8461V23.6923C20 24.7969 19.1046 25.6923 18 25.6923H2C0.895431 25.6923 0 24.7969 0 23.6923V17.8461Z" fill="black"/>
<path d="M0 33.6923C0 32.5878 0.895431 31.6923 2 31.6923H18C19.1046 31.6923 20 32.5878 20 33.6923V39.5385C20 40.643 19.1046 41.5385 18 41.5385H2C0.895431 41.5385 0 40.643 0 39.5385V33.6923Z" fill="black"/>
<path d="M0 49.5385C0 48.4339 0.895431 47.5385 2 47.5385H18C19.1046 47.5385 20 48.4339 20 49.5385V55.3846C20 56.4892 19.1046 57.3846 18 57.3846H2C0.895431 57.3846 0 56.4892 0 55.3846V49.5385Z" fill="black"/>
<path d="M0 65.3846C0 64.2801 0.895431 63.3846 2 63.3846H18C19.1046 63.3846 20 64.2801 20 65.3846V71.2308C20 72.3354 19.1046 73.2308 18 73.2308H2C0.895431 73.2308 0 72.3354 0 71.2308V65.3846Z" fill="black"/>
<path d="M0 81.2308C0 80.1262 0.895431 79.2308 2 79.2308H18C19.1046 79.2308 20 80.1262 20 81.2308V87.0769C20 88.1815 19.1046 89.0769 18 89.0769H2C0.895431 89.0769 0 88.1815 0 87.0769V81.2308Z" fill="black"/>
<path d="M0 97.0769C0 95.9723 0.895431 95.0769 2 95.0769H18C19.1046 95.0769 20 95.9723 20 97.0769V102.923C20 104.028 19.1046 104.923 18 104.923H2C0.895431 104.923 0 104.028 0 102.923V97.0769Z" fill="black"/>
<path d="M0 112.923C0 111.819 0.895431 110.923 2 110.923H18C19.1046 110.923 20 111.819 20 112.923V118.769C20 119.874 19.1046 120.769 18 120.769H2C0.895431 120.769 0 119.874 0 118.769V112.923Z" fill="black"/>
<path d="M0 128.769C0 127.665 0.895431 126.769 2 126.769H18C19.1046 126.769 20 127.665 20 128.769V134.615C20 135.72 19.1046 136.615 18 136.615H2C0.895431 136.615 0 135.72 0 134.615V128.769Z" fill="black"/>
<path d="M0 144.615C0 143.511 0.895431 142.615 2 142.615H18C19.1046 142.615 20 143.511 20 144.615V150.462C20 151.566 19.1046 152.462 18 152.462H2C0.895431 152.462 0 151.566 0 150.462V144.615Z" fill="black"/>
<path d="M0 160.462C0 159.357 0.895431 158.462 2 158.462H18C19.1046 158.462 20 159.357 20 160.462V166.308C20 167.412 19.1046 168.308 18 168.308H2C0.895431 168.308 0 167.412 0 166.308V160.462Z" fill="black"/>
<path d="M0 176.308C0 175.203 0.895431 174.308 2 174.308H18C19.1046 174.308 20 175.203 20 176.308V182.154C20 183.258 19.1046 184.154 18 184.154H2C0.895431 184.154 0 183.258 0 182.154V176.308Z" fill="black"/>
<rect y="190.154" width="20" height="9.84616" rx="2" fill="black"/>
</svg>